<svg width="60" height="60" viewBox="0 0 60 60" fill="none" xmlns="http://www.w3.org/2000/svg">
<path fill-rule="evenodd" clip-rule="evenodd" d="M32.156 10.0582C33.5749 6.4182 37.075 4.01567 40.9818 4C42.0261 4 42.8727 4.84659 42.8727 5.89091C42.8727 6.93523 42.0261 7.78182 40.9818 7.78182C38.6374 7.79115 36.537 9.23279 35.6854 11.4171C35.3101 12.3917 34.2159 12.8776 33.2413 12.5024C32.2667 12.1271 31.7808 11.0328 32.156 10.0582ZM53.7561 39.8696C50.6798 38.3234 48.6867 35.2277 48.5524 31.7874C48.4182 28.347 50.1639 25.1054 53.1103 23.3241C53.5737 23.0435 53.8944 22.5777 53.9913 22.0447C54.0881 21.5117 53.9517 20.9628 53.6166 20.5372C48.2739 13.7446 38.5168 12.3915 31.5273 17.4739C26.6379 13.9185 20.1672 13.4071 14.7801 16.1503C9.39292 18.8935 6.00051 24.4274 6 30.4727C6 36.5007 7.97033 42.874 11.4059 47.9587C14.8081 52.9939 19.1491 56 23.0182 56H40.0364C45.3463 56 51.3643 50.3592 54.6711 42.2826C55.0473 41.3628 54.6476 40.3086 53.7561 39.8694V39.8696Z" fill="#AA92E1"/>
</svg>
