<svg width="34" height="16" viewBox="0 0 34 16" fill="none" xmlns="http://www.w3.org/2000/svg">
<path d="M1 6.99951C0.447715 6.99951 0 7.44723 0 7.99951C0 8.5518 0.447715 8.99951 1 8.99951L1 6.99951ZM33.7071 8.70662C34.0976 8.31609 34.0976 7.68293 33.7071 7.2924L27.3431 0.928444C26.9526 0.53792 26.3195 0.53792 25.9289 0.928444C25.5384 1.31897 25.5384 1.95213 25.9289 2.34266L31.5858 7.99951L25.9289 13.6564C25.5384 14.0469 25.5384 14.6801 25.9289 15.0706C26.3195 15.4611 26.9526 15.4611 27.3431 15.0706L33.7071 8.70662ZM1 8.99951L33 8.99951V6.99951L1 6.99951L1 8.99951Z" fill="white"/>
</svg>
