<svg width="276" height="118" viewBox="0 0 276 118" fill="none" xmlns="http://www.w3.org/2000/svg">
<path fill-rule="evenodd" clip-rule="evenodd" d="M192.227 154.951C220.16 165.191 251.219 150.793 261.458 122.857C271.698 94.9214 257.301 63.8658 229.365 53.6261C201.429 43.3864 170.37 57.7807 160.131 85.7197C149.891 113.656 164.291 144.711 192.227 154.951ZM2.13394 27.8061C8.74417 9.77313 28.72 0.512644 46.753 7.12595C56.5447 10.7122 63.7171 18.2583 67.2014 27.2779L67.2199 27.2284C73.6448 43.8467 100.225 67.6712 138.076 30.4131L138.061 30.4594C165.749 3.26484 207.672 -7.26209 246.471 6.95915C300.138 26.6323 327.795 86.2942 308.125 139.96C288.455 193.63 228.79 221.288 175.121 201.618C136.325 187.397 111.135 152.273 107.576 113.625L107.558 113.671C102.751 60.7769 67.0717 61.7807 51.4265 70.3092L51.445 70.2628C42.9598 74.8962 32.6089 76.0143 22.8171 72.4281C4.78421 65.8179 -4.47626 45.839 2.13394 27.8061Z" fill="#111111" fill-opacity="0.04"/>
</svg>
