<svg width="284" height="123" viewBox="0 0 284 123" fill="none" xmlns="http://www.w3.org/2000/svg">
<path fill-rule="evenodd" clip-rule="evenodd" d="M98.1691 149.192C71.1657 159.091 41.1403 145.173 31.2413 118.167C21.3424 91.1601 35.2606 61.1377 62.2671 51.2388C89.2735 41.3398 119.299 55.2551 129.198 82.2645C139.097 109.271 125.176 139.293 98.1691 149.192ZM281.937 26.2776C275.547 8.84468 256.236 -0.10769 238.803 6.28558C229.337 9.75246 222.403 17.0475 219.035 25.767L219.017 25.7192C212.806 41.7845 187.11 64.8164 150.518 28.7979L150.533 28.8427C123.766 2.55294 83.238 -7.62374 45.7295 6.12433C-6.15129 25.1429 -32.889 82.8197 -13.8734 134.7C5.14219 186.584 62.822 213.322 114.706 194.306C152.211 180.558 176.563 146.603 180.003 109.241L180.021 109.286C184.667 58.1514 219.16 59.1219 234.285 67.3665L234.267 67.3217C242.47 71.8009 252.476 72.8819 261.942 69.415C279.375 63.0247 288.327 43.7105 281.937 26.2776Z" fill="#111111" fill-opacity="0.04"/>
</svg>
