<svg width="30" height="28" viewBox="0 0 30 28" fill="none" xmlns="http://www.w3.org/2000/svg">
<g opacity="0.37">
<path d="M25.1915 2.24789C24.6001 1.66244 23.8969 1.20268 23.1241 0.896173C22.3512 0.589664 21.5246 0.442711 20.6937 0.464111C19.8591 0.475948 19.0351 0.65408 18.2697 0.988143C17.5043 1.32221 16.8129 1.80553 16.2355 2.40999L13.7008 5.05635L11.1481 2.40827C10.57 1.80529 9.8787 1.32282 9.11396 0.988606C8.34921 0.654393 7.52612 0.475028 6.69199 0.460816C5.85786 0.446604 5.02916 0.597825 4.25353 0.905794C3.4779 1.21376 2.77065 1.6724 2.17243 2.25533C1.57421 2.83827 1.09683 3.534 0.767734 4.30253C0.438639 5.07106 0.264323 5.89723 0.254806 6.73353C0.24529 7.56983 0.400762 8.39977 0.712282 9.17562C1.0238 9.95148 1.48523 10.6579 2.07003 11.2544L13.2508 21.3087C13.3756 21.4202 13.537 21.4816 13.7042 21.4812C13.8718 21.482 14.0336 21.4197 14.1576 21.3066L25.3511 11.2182C26.073 10.4702 26.6003 9.55582 26.8867 8.55546C27.1731 7.55511 27.2098 6.49951 26.9935 5.48161C26.7322 4.24617 26.1045 3.11874 25.1929 2.2472" fill="#593C8F"/>
</g>
<path d="M13.7025 27.3374L4.40557 19.0365C4.14413 18.8031 3.93111 18.5203 3.77867 18.2043C3.62623 17.8883 3.53737 17.5454 3.51715 17.195C3.49692 16.8446 3.54574 16.4936 3.66082 16.1621C3.77589 15.8307 3.95496 15.5251 4.1878 15.263C4.42065 15.0009 4.70271 14.7874 5.01788 14.6345C5.33306 14.4817 5.67517 14.3926 6.02468 14.3724C6.3742 14.3521 6.72428 14.401 7.05493 14.5164C7.38557 14.6318 7.69032 14.8113 7.95176 15.0447L13.6935 20.1708L25.3559 9.7013C25.8827 9.22844 26.5754 8.98475 27.2814 9.02385C27.9874 9.06295 28.6491 9.38163 29.1207 9.90978C29.5924 10.4379 29.8355 11.1323 29.7965 11.8401C29.7575 12.548 29.4396 13.2112 28.9128 13.6841L13.7025 27.3374Z" fill="#593C8F"/>
</svg>
