<svg width="117" height="122" viewBox="0 0 117 122" fill="none" xmlns="http://www.w3.org/2000/svg">
<path d="M58.9566 72.8369C58.6985 79.0214 52.0959 84.2318 47.1933 82.8712C45.6516 82.4078 44.3056 81.4339 43.3683 80.1037C41.38 77.1197 43.0344 71.2445 46.2674 68.5697C47.7751 67.3393 49.6666 66.7015 51.5972 66.7724C53.5279 66.8434 55.3693 67.6184 56.7861 68.9562C57.6921 70.1346 58.4234 71.4421 58.9566 72.8369Z" fill="#AA92E1"/>
<path d="M100.235 74.0987C99.9768 80.2831 93.3742 85.4935 88.4716 84.1329C86.9299 83.6695 85.5839 82.6956 84.6467 81.3654C82.6583 78.3814 84.3127 72.5062 87.5457 69.8314C89.0535 68.601 90.9449 67.9632 92.8755 68.0341C94.8062 68.1051 96.6476 68.8801 98.0644 70.2179C98.9704 71.3963 99.7017 72.7039 100.235 74.0987Z" fill="#AA92E1"/>
<path d="M51.0645 47.6977C50.3344 47.776 49.5963 47.6907 48.9019 47.448C48.2075 47.2053 47.5735 46.8109 47.0444 46.2925C46.5153 45.7741 46.1037 45.1443 45.8385 44.4469C45.5733 43.7496 45.4609 43.0016 45.5092 42.2554C45.5593 39.9245 46.4897 37.703 48.1067 36.053C49.7238 34.4029 51.903 33.4514 54.1912 33.3962C58.259 33.3962 60.8697 35.5453 60.8697 39.055C60.8849 43.3532 56.0885 47.605 51.0645 47.6977Z" fill="#AA92E1"/>
<path d="M80.8283 52.2279C80.8283 56.959 76.4114 61.5045 72.1007 61.5045C70.617 61.4889 69.1973 60.8868 68.141 59.8253C67.0847 58.7638 66.4746 57.3259 66.4392 55.8148C66.4392 51.9187 71.6909 46.3681 75.3793 46.43C76.8477 46.49 78.236 47.1277 79.2522 48.209C80.2685 49.2903 80.8334 50.7309 80.8283 52.2279Z" fill="#AA92E1"/>
<path d="M110.317 39.8128C110.317 44.5439 105.9 49.0895 101.589 49.0895C100.105 49.0739 98.6855 48.4718 97.6293 47.4103C96.573 46.3488 95.9628 44.9108 95.9275 43.3998C95.9275 39.5036 101.179 33.9531 104.868 34.0149C106.336 34.0749 107.724 34.7127 108.74 35.794C109.757 36.8753 110.322 38.3159 110.317 39.8128Z" fill="#AA92E1"/>
<path d="M50.5325 106.388C50.5325 110.021 46.6468 114.273 43.3531 114.196C40.7424 114.196 37.7219 110.639 37.7219 107.671C37.7219 104.702 41.9719 100.822 45.1745 100.698C45.9008 100.686 46.6217 100.827 47.2922 101.112C47.9626 101.397 48.5682 101.819 49.0711 102.353C49.5739 102.887 49.9632 103.521 50.2147 104.215C50.4661 104.909 50.5743 105.649 50.5325 106.388Z" fill="#AA92E1"/>
<path d="M32.7126 52.877C34.0623 53.6091 35.3082 54.5245 36.4161 55.5981C37.016 56.335 37.3116 57.2804 37.2409 58.2349C37.1701 59.1895 36.7384 60.0789 36.0366 60.7157C34.4854 62.5051 32.6975 64.0662 30.7242 65.354C29.7752 65.9643 28.6384 66.1961 27.5318 66.005C26.4253 65.8138 25.4271 65.2131 24.7287 64.3181C23.981 63.4823 23.5442 62.406 23.4943 61.2763C23.4444 60.1465 23.7845 59.0346 24.4555 58.1337C25.3061 56.6375 26.5033 55.3762 27.9426 54.4599C29.3819 53.5435 31.0196 53.0001 32.7126 52.877Z" fill="#AA92E1"/>
<path d="M33.4263 15.3218C36.887 15.3218 38.9816 17.2853 38.845 20.2539C38.678 23.6708 34.7468 27.4587 31.4379 27.3814C30.0545 27.2325 28.7741 26.5672 27.8437 25.5137C26.9132 24.4603 26.3985 23.0933 26.3987 21.6763C26.5347 19.8965 27.3431 18.2397 28.6538 17.0546C29.9644 15.8695 31.6752 15.2483 33.4263 15.3218Z" fill="#AA92E1"/>
<path d="M25.3213 83.7525C28.357 83.7525 30.3454 85.6387 30.1784 88.3908C29.9811 91.8386 25.7919 95.4565 22.149 95.3637C21.5104 95.3954 20.8721 95.2937 20.2735 95.0649C19.6748 94.8361 19.1284 94.485 18.6678 94.0333C18.2072 93.5815 17.8422 93.0385 17.5952 92.4378C17.3481 91.8371 17.2243 91.1912 17.2312 90.5399C17.2616 87.3085 21.5571 83.737 25.3213 83.7525Z" fill="#AA92E1"/>
<path d="M96.1749 30.3038C96.0079 34.0299 91.6214 38.2199 88.1304 38.0344C87.5389 38.0165 86.9569 37.879 86.4182 37.6299C85.8794 37.3809 85.3946 37.0251 84.9921 36.5834C84.5895 36.1417 84.2772 35.6229 84.0733 35.0571C83.8695 34.4913 83.7781 33.8899 83.8045 33.2878C83.9107 29.7317 88.4946 25.4026 91.9098 25.5572C92.5068 25.5474 93.0991 25.6667 93.6474 25.9072C94.1958 26.1478 94.6878 26.5042 95.091 26.9528C95.4941 27.4015 95.7992 27.9321 95.9861 28.5098C96.1729 29.0875 96.2373 29.6989 96.1749 30.3038Z" fill="#AA92E1"/>
<path d="M69.4897 79.2847C70.1727 79.8568 72.0093 80.6917 72.6316 82.0832C72.8558 82.8331 72.9094 83.6252 72.7885 84.3994C72.6675 85.1735 72.3751 85.9095 71.9334 86.5514C70.5007 88.446 68.6424 89.9625 66.5147 90.9733C65.69 91.1835 64.8295 91.2023 63.9967 91.0284C63.1639 90.8544 62.3801 90.4921 61.7031 89.9683C61.2579 89.3281 60.9565 88.5959 60.8201 87.8237C60.6837 87.0516 60.7157 86.2582 60.9138 85.5001C61.6576 82.2223 65.5736 79.2383 69.4897 79.2847Z" fill="#AA92E1"/>
<path d="M56.3306 24.5988C53.4771 24.5988 51.5039 22.9135 51.5039 20.3934C51.5039 17.5795 55.678 13.2967 58.3797 13.3586C59.4856 13.4132 60.5366 13.866 61.3454 14.6361C62.1543 15.4062 62.6685 16.4438 62.7966 17.564C62.7966 19.3535 62.1285 21.0761 60.9278 22.3824C59.7271 23.6887 58.0836 24.4811 56.3306 24.5988Z" fill="#AA92E1"/>
<path d="M61.7953 110.207C62.9817 110.267 64.098 110.797 64.9062 111.683C65.7143 112.57 66.1503 113.744 66.1212 114.953C65.9997 118.463 62.4783 122.173 59.5641 121.849C58.3058 121.586 57.1929 120.845 56.4515 119.777C55.71 118.709 55.3956 117.393 55.5722 116.097C55.8066 114.545 56.5487 113.119 57.6781 112.05C58.8076 110.98 60.2583 110.331 61.7953 110.207Z" fill="#AA92E1"/>
<path d="M13.4215 22.2178C16.0474 22.2178 18.1572 24.8462 18.0813 28.0157C18.0813 30.876 15.3644 33.0096 11.934 32.9942C11.3916 33.0009 10.8536 32.895 10.3527 32.683C9.8518 32.4709 9.39862 32.157 9.02078 31.7606C8.64294 31.3641 8.34837 30.8934 8.15509 30.3771C7.9618 29.8609 7.87384 29.3099 7.89657 28.7578C7.89657 25.6656 10.7653 22.2332 13.4215 22.2178Z" fill="#AA92E1"/>
<path d="M88.3412 61.7672C85.3055 61.7672 83.4841 60.2211 83.4082 57.7782C83.5173 56.2894 84.1919 54.9026 85.2887 53.9124C86.3855 52.9221 87.8182 52.4065 89.2822 52.475C92.0902 52.6297 94.8224 55.3199 94.625 57.7473C94.4277 60.1747 91.8778 61.8136 88.3412 61.7672Z" fill="#AA92E1"/>
<path d="M5.23669 80.419C2.20101 80.419 0.379603 78.8729 0.303711 76.4301C0.41278 74.9413 1.08739 73.5545 2.18422 72.5642C3.28105 71.574 4.71366 71.0584 6.17774 71.1269C8.98575 71.2815 11.7179 73.9717 11.5205 76.3991C11.3232 78.8265 8.77326 80.4654 5.23669 80.419Z" fill="#AA92E1"/>
<path d="M26.46 45.0225C25.2608 44.995 24.1183 44.4974 23.2701 43.6335C22.422 42.7695 21.9335 41.6057 21.9065 40.3842C21.9065 37.5239 25.4886 34.3853 28.7216 34.4626C29.7324 34.4459 30.7088 34.8359 31.4391 35.5479C32.1694 36.26 32.5946 37.2366 32.6224 38.266C32.668 40.9253 28.843 45.1153 26.46 45.0225Z" fill="#AA92E1"/>
<path d="M9.41045 61.5828C8.21128 61.5553 7.06873 61.0577 6.22057 60.1938C5.37241 59.3298 4.88398 58.166 4.85693 56.9445C4.85693 54.0842 8.43904 50.9456 11.672 51.0229C12.6828 51.0062 13.6593 51.3962 14.3896 52.1082C15.1199 52.8203 15.545 53.7969 15.5729 54.8263C15.6184 57.4856 11.7935 61.6756 9.41045 61.5828Z" fill="#AA92E1"/>
<path d="M77.7137 103.328C76.5145 103.3 75.372 102.803 74.5238 101.939C73.6756 101.075 73.1872 99.9109 73.1602 98.6894C73.1602 95.8291 76.7423 92.6905 79.9753 92.7678C80.9861 92.7511 81.9625 93.1411 82.6928 93.8531C83.4231 94.5652 83.8483 95.5418 83.8761 96.5712C83.9216 99.2305 80.0967 103.42 77.7137 103.328Z" fill="#AA92E1"/>
<path d="M111.109 24.4752C110.605 24.5306 110.095 24.4804 109.61 24.3275C109.126 24.1747 108.677 23.9226 108.292 23.5866C107.906 23.2506 107.593 22.838 107.37 22.3739C107.147 21.9099 107.02 21.4043 106.996 20.8882C106.928 19.2879 107.449 17.7195 108.457 16.4899C109.465 15.2603 110.887 14.458 112.445 14.24C112.989 14.1239 113.552 14.1315 114.093 14.2623C114.633 14.3932 115.139 14.644 115.574 14.9969C116.009 15.3499 116.362 15.7962 116.608 16.3041C116.855 16.8119 116.988 17.3689 116.998 17.9352C117.089 20.5326 113.704 24.3051 111.109 24.4752Z" fill="#AA92E1"/>
<path d="M24.7742 4.74657C24.6838 5.95665 24.1778 7.09561 23.3451 7.96358C22.5124 8.83156 21.4063 9.37307 20.2207 9.49311C19.1122 9.43304 18.0707 8.93353 17.319 8.10141C16.5674 7.26928 16.1652 6.17061 16.1984 5.04033C16.1884 4.38856 16.3045 3.74114 16.5401 3.13508C16.7758 2.52902 17.1262 1.97618 17.5716 1.50813C18.017 1.04007 18.5486 0.665983 19.136 0.407217C19.7233 0.148451 20.355 0.0100732 20.9948 0C22.0825 0.190304 23.0653 0.776502 23.7605 1.64958C24.4557 2.52266 24.8159 3.62321 24.7742 4.74657Z" fill="#AA92E1"/>
</svg>
