<svg width="137" height="134" viewBox="0 0 137 134" fill="none" xmlns="http://www.w3.org/2000/svg">
<path d="M71.443 74.2186C71.1287 81.759 63.0864 88.1117 57.1148 86.4529C55.2369 85.8879 53.5974 84.7005 52.4558 83.0785C50.0338 79.4403 52.049 72.2769 55.987 69.0157C57.8235 67.5155 60.1274 66.7379 62.479 66.8244C64.8306 66.9109 67.0735 67.8558 68.7992 69.487C69.9029 70.9237 70.7936 72.5179 71.443 74.2186Z" fill="#1F94AA"/>
<path d="M123.72 75.7562C123.406 83.2966 115.364 89.6493 109.392 87.9905C107.514 87.4255 105.875 86.2381 104.733 84.6161C102.311 80.9779 104.327 73.8145 108.264 70.5533C110.101 69.0531 112.405 68.2755 114.756 68.362C117.108 68.4485 119.351 69.3934 121.077 71.0246C122.18 72.4613 123.071 74.0555 123.72 75.7562Z" fill="#1F94AA"/>
<path d="M61.8268 43.5673C60.9375 43.6626 60.0384 43.5587 59.1926 43.2628C58.3468 42.9668 57.5746 42.486 56.9301 41.8539C56.2856 41.2219 55.7843 40.4539 55.4613 39.6037C55.1383 38.7535 55.0014 37.8415 55.0601 36.9317C55.1212 34.0898 56.2544 31.3812 58.2241 29.3694C60.1937 27.3575 62.8482 26.1974 65.6353 26.1301C70.5901 26.1301 73.7701 28.7504 73.7701 33.0296C73.7885 38.2702 67.9463 43.4542 61.8268 43.5673Z" fill="#1F94AA"/>
<path d="M98.0814 49.0905C98.0814 54.8589 92.7013 60.4011 87.4507 60.4011C85.6435 60.382 83.9141 59.648 82.6275 58.3537C81.341 57.0595 80.5977 55.3062 80.5547 53.4639C80.5547 48.7135 86.9516 41.946 91.4442 42.0214C93.2327 42.0946 94.9237 42.8721 96.1616 44.1905C97.3994 45.5089 98.0876 47.2654 98.0814 49.0905Z" fill="#1F94AA"/>
<path d="M136.001 33.9535C136.001 39.7219 130.621 45.2641 125.371 45.2641C123.563 45.2451 121.834 44.511 120.547 43.2168C119.261 41.9225 118.518 40.1693 118.475 38.327C118.475 33.5765 124.871 26.809 129.364 26.8844C131.153 26.9576 132.844 27.7352 134.082 29.0536C135.319 30.3719 136.008 32.1284 136.001 33.9535Z" fill="#1F94AA"/>
<path d="M61.1821 115.125C61.1821 119.555 56.4491 124.739 52.4372 124.645C49.2573 124.645 45.5781 120.309 45.5781 116.69C45.5781 113.071 50.7548 108.339 54.6558 108.188C55.5405 108.174 56.4186 108.345 57.2352 108.693C58.0518 109.04 58.7895 109.555 59.402 110.206C60.0145 110.857 60.4887 111.63 60.795 112.477C61.1012 113.323 61.233 114.225 61.1821 115.125Z" fill="#1F94AA"/>
<path d="M39.4744 49.8818C41.1185 50.7745 42.636 51.8906 43.9855 53.1996C44.7161 54.0981 45.0763 55.2507 44.9901 56.4146C44.9039 57.5785 44.378 58.6628 43.5233 59.4393C41.6338 61.621 39.456 63.5243 37.0525 65.0946C35.8965 65.8387 34.5118 66.1213 33.164 65.8882C31.8162 65.6551 30.6003 64.9227 29.7497 63.8315C28.8389 62.8124 28.3069 61.5001 28.2461 60.1227C28.1853 58.7453 28.5996 57.3896 29.4169 56.2912C30.4529 54.4669 31.9112 52.929 33.6643 51.8118C35.4175 50.6946 37.4123 50.032 39.4744 49.8818Z" fill="#1F94AA"/>
<path d="M40.3431 4.09282C44.5583 4.09282 47.1097 6.48689 46.9433 10.1063C46.7399 14.2723 41.9515 18.8908 37.9211 18.7966C36.236 18.615 34.6765 17.8038 33.5432 16.5194C32.4098 15.235 31.7828 13.5683 31.7831 11.8406C31.9488 9.67053 32.9334 7.65058 34.5299 6.20561C36.1263 4.76064 38.2102 4.00328 40.3431 4.09282Z" fill="#1F94AA"/>
<path d="M30.4697 87.5274C34.1673 87.5274 36.5893 89.8272 36.3859 93.1827C36.1455 97.3865 31.0429 101.798 26.6057 101.684C25.8278 101.723 25.0504 101.599 24.3212 101.32C23.592 101.041 22.9264 100.613 22.3654 100.062C21.8044 99.5114 21.3598 98.8494 21.0589 98.117C20.758 97.3845 20.6071 96.597 20.6156 95.803C20.6525 91.8631 25.8847 87.5086 30.4697 87.5274Z" fill="#1F94AA"/>
<path d="M118.772 22.3588C118.569 26.9019 113.226 32.0105 108.974 31.7843C108.253 31.7626 107.544 31.5949 106.888 31.2912C106.232 30.9875 105.641 30.5538 105.151 30.0153C104.661 29.4767 104.28 28.8441 104.032 28.1543C103.784 27.4645 103.672 26.7311 103.705 25.997C103.834 21.6613 109.417 16.383 113.577 16.5716C114.304 16.5595 115.026 16.705 115.694 16.9983C116.362 17.2916 116.961 17.7261 117.452 18.2731C117.943 18.8201 118.315 19.4672 118.542 20.1715C118.77 20.8758 118.848 21.6213 118.772 22.3588Z" fill="#1F94AA"/>
<path d="M84.2744 82.0798C85.1063 82.7772 87.3434 83.7952 88.1014 85.4918C88.3745 86.4061 88.4398 87.3719 88.2925 88.3158C88.1451 89.2597 87.789 90.157 87.251 90.9397C85.5059 93.2497 83.2424 95.0987 80.6507 96.3311C79.6462 96.5873 78.598 96.6103 77.5837 96.3982C76.5693 96.1861 75.6146 95.7444 74.79 95.1058C74.2477 94.3251 73.8805 93.4325 73.7144 92.491C73.5482 91.5495 73.5872 90.5823 73.8286 89.6579C74.7345 85.6614 79.5045 82.0232 84.2744 82.0798Z" fill="#1F94AA"/>
<path d="M68.2425 15.4035C64.7667 15.4035 62.3633 13.3487 62.3633 10.276C62.3633 6.84513 67.4475 1.6234 70.7384 1.69881C72.0854 1.76547 73.3655 2.31744 74.3507 3.25642C75.336 4.1954 75.9624 5.46043 76.1184 6.82627C76.1183 9.00815 75.3046 11.1084 73.842 12.7011C72.3795 14.2939 70.3777 15.2599 68.2425 15.4035Z" fill="#1F94AA"/>
<path d="M74.8944 119.781C76.3395 119.854 77.6993 120.501 78.6836 121.582C79.668 122.663 80.1991 124.093 80.1635 125.568C80.0156 129.847 75.7264 134.372 72.1767 133.976C70.6441 133.656 69.2885 132.753 68.3853 131.45C67.4822 130.147 67.0993 128.543 67.3143 126.963C67.5999 125.071 68.5038 123.332 69.8795 122.028C71.2553 120.725 73.0223 119.933 74.8944 119.781Z" fill="#1F94AA"/>
<path d="M15.9764 12.5C19.1748 12.5 21.7446 15.7047 21.6522 19.5691C21.6522 23.0565 18.3428 25.658 14.1645 25.6391C13.5039 25.6474 12.8485 25.5183 12.2384 25.2597C11.6283 25.0011 11.0763 24.6184 10.616 24.1351C10.1558 23.6517 9.79702 23.0778 9.56159 22.4483C9.32616 21.8188 9.21902 21.147 9.2467 20.474C9.2467 16.7038 12.7409 12.5189 15.9764 12.5Z" fill="#1F94AA"/>
<path d="M109.233 60.7211C105.536 60.7211 103.317 58.836 103.225 55.8576C103.357 54.0424 104.179 52.3515 105.515 51.1441C106.851 49.9368 108.596 49.3081 110.379 49.3917C113.8 49.5802 117.128 52.8602 116.887 55.8198C116.647 58.7794 113.541 60.7777 109.233 60.7211Z" fill="#1F94AA"/>
<path d="M6.00862 83.4631C2.31101 83.4631 0.0924403 81.578 0 78.5995C0.132851 76.7843 0.954561 75.0934 2.29056 73.8861C3.62655 72.6787 5.37155 72.05 7.15487 72.1336C10.5752 72.3221 13.903 75.6022 13.6627 78.5618C13.4223 81.5214 10.3163 83.5196 6.00862 83.4631Z" fill="#1F94AA"/>
<path d="M31.857 40.3054C30.3963 40.2718 29.0046 39.6652 27.9715 38.6118C26.9384 37.5584 26.3435 36.1394 26.3105 34.6501C26.3105 31.1627 30.6737 27.3359 34.6117 27.4302C35.8429 27.4098 37.0323 27.8853 37.9218 28.7535C38.8113 29.6217 39.3292 30.8125 39.3631 32.0675C39.4186 35.3099 34.7596 40.4185 31.857 40.3054Z" fill="#1F94AA"/>
<path d="M11.0913 60.4966C9.63069 60.463 8.239 59.8564 7.2059 58.803C6.1728 57.7496 5.57786 56.3306 5.54492 54.8413C5.54492 51.3538 9.90812 47.5271 13.8461 47.6213C15.0773 47.601 16.2666 48.0765 17.1562 48.9447C18.0457 49.8128 18.5636 51.0036 18.5975 52.2587C18.653 55.501 13.994 60.6097 11.0913 60.4966Z" fill="#1F94AA"/>
<path d="M94.2906 111.395C92.8299 111.361 91.4382 110.754 90.4051 109.701C89.372 108.648 88.7771 107.229 88.7441 105.739C88.7441 102.252 93.1073 98.425 97.0453 98.5193C98.2765 98.499 99.4659 98.9745 100.355 99.8426C101.245 100.711 101.763 101.902 101.797 103.157C101.852 106.399 97.1932 111.508 94.2906 111.395Z" fill="#1F94AA"/>
<path d="M124.603 19.7929C123.989 19.8604 123.368 19.7992 122.778 19.6129C122.188 19.4265 121.641 19.1191 121.172 18.7095C120.703 18.2999 120.32 17.7967 120.049 17.2309C119.777 16.6651 119.622 16.0487 119.593 15.4195C119.511 13.4683 120.146 11.556 121.373 10.0568C122.601 8.55755 124.333 7.57936 126.23 7.31356C126.893 7.172 127.579 7.1813 128.237 7.34083C128.896 7.50036 129.513 7.8062 130.042 8.23649C130.572 8.66679 131.002 9.21097 131.302 9.83021C131.602 10.4495 131.764 11.1285 131.777 11.8189C131.888 14.9859 127.765 19.5855 124.603 19.7929Z" fill="#1F94AA"/>
<path d="M107.155 5.78726C107.045 7.26266 106.429 8.65134 105.414 9.70962C104.4 10.7679 103.053 11.4281 101.609 11.5745C100.258 11.5013 98.9899 10.8922 98.0743 9.87766C97.1587 8.86309 96.6688 7.52353 96.7094 6.14544C96.6971 5.35076 96.8386 4.5614 97.1256 3.82246C97.4125 3.08352 97.8395 2.40946 98.382 1.83879C98.9245 1.26811 99.572 0.812002 100.287 0.496501C101.003 0.180999 101.772 0.0122817 102.552 0C103.876 0.232029 105.074 0.946753 105.92 2.01126C106.767 3.07576 107.206 4.41761 107.155 5.78726Z" fill="#1F94AA"/>
</svg>
