<svg width="108" height="106" viewBox="0 0 108 106" fill="none" xmlns="http://www.w3.org/2000/svg">
<path d="M60.7403 46.4795C62.6907 43.2877 68.4946 42.8283 71.2971 45.2622C72.1681 46.0464 72.7645 47.0332 72.9919 48.0664C73.4276 50.3442 70.6564 52.8843 67.7789 53.1748C66.4418 53.3013 65.0255 52.9793 63.7879 52.2675C62.5504 51.5557 61.5738 50.5014 61.0362 49.2968C60.7854 48.3551 60.6857 47.4058 60.7403 46.4795Z" fill="#1F94AA"/>
<path d="M58.6393 62.575C59.1376 62.7884 59.594 63.0914 59.9765 63.4627C60.359 63.8339 60.6585 64.2646 60.8539 64.7244C61.0493 65.1843 61.1359 65.6622 61.1078 66.1249C61.0796 66.5875 60.9373 67.0237 60.6908 67.4028C59.9864 68.6223 58.7399 69.4763 57.2107 69.7873C55.6815 70.0982 53.9873 69.8422 52.4804 69.0725C49.8297 67.6521 48.7479 65.6001 49.7594 63.7376C50.9882 61.4514 55.3389 60.8699 58.6393 62.575Z" fill="#1F94AA"/>
<path d="M40.5488 49.7792C41.9123 47.2686 46.1004 46.3987 48.9093 47.9039C49.8716 48.4303 50.6232 49.2455 51.0055 50.1776C51.3879 51.1098 51.3711 52.0859 50.9587 52.9001C49.8358 54.9677 44.8142 56.0794 42.4286 54.7586C41.4891 54.2141 40.7683 53.3909 40.4177 52.4622C40.0671 51.5335 40.1141 50.5718 40.5488 49.7792Z" fill="#1F94AA"/>
<path d="M75.8988 31.6167C76.9459 29.6886 80.7032 28.7891 82.8271 29.9803C84.5283 30.8919 85.4717 33.8336 84.6162 35.4089C83.7607 36.9842 79.873 37.5596 77.7505 36.5069C77.2738 36.2596 76.8446 35.9331 76.4898 35.5479C76.135 35.1627 75.8622 34.727 75.6884 34.268C75.5146 33.8091 75.4437 33.3367 75.4799 32.8805C75.5161 32.4244 75.6587 31.9941 75.8988 31.6167Z" fill="#1F94AA"/>
<path d="M72.09 66.2343C71.4215 65.3745 70.8735 64.4537 70.4609 63.4971C70.2825 62.8966 70.3622 62.2917 70.6834 61.8098C71.0047 61.328 71.5423 61.0068 72.183 60.9139C73.7095 60.5059 75.3245 60.3019 76.9814 60.3075C77.7757 60.315 78.5832 60.5889 79.2492 61.0767C79.9151 61.5646 80.3924 62.2319 80.5896 62.9507C80.8359 63.6553 80.8104 64.379 80.5173 64.9959C80.2242 65.6129 79.6822 66.0841 78.9853 66.3279C77.9999 66.8249 76.8563 67.0762 75.6544 67.0599C74.4524 67.0436 73.2287 66.7601 72.09 66.2343Z" fill="#1F94AA"/>
<path d="M60.8016 85.9151C58.5466 84.7067 57.7476 82.9333 58.6921 81.4057C59.7856 79.6507 63.4389 79.0133 65.5727 80.2097C66.4312 80.7718 67.0737 81.572 67.3765 82.4559C67.6792 83.3398 67.6206 84.2449 67.2121 84.9968C66.6106 85.8938 65.6064 86.4907 64.4108 86.662C63.2152 86.8332 61.9214 86.5655 60.8016 85.9151Z" fill="#1F94AA"/>
<path d="M85.8037 52.4301C83.8256 51.3701 83.0736 49.6748 83.9755 48.2727C85.0977 46.512 88.87 46.0549 91.217 47.3761C91.6423 47.5823 92.0289 47.8591 92.353 48.1896C92.6772 48.52 92.9321 48.8971 93.102 49.2977C93.2719 49.6983 93.3533 50.1139 93.3411 50.5189C93.329 50.924 93.2235 51.31 93.0313 51.6532C92.0803 53.3573 88.2521 53.7527 85.8037 52.4301Z" fill="#1F94AA"/>
<path d="M24.2315 56.0559C25.4141 54.1369 29.4799 53.4451 31.7013 54.7626C32.0815 54.9786 32.4211 55.2547 32.7004 55.575C32.9797 55.8954 33.1931 56.2534 33.3281 56.6284C33.4631 57.0033 33.5171 57.3877 33.4869 57.7591C33.4566 58.1306 33.3429 58.4816 33.1521 58.7919C32.0581 60.6419 27.8236 61.3386 25.6428 60.064C25.2509 59.8608 24.8994 59.5907 24.6114 59.2716C24.3234 58.9524 24.1055 58.5915 23.9721 58.2127C23.8387 57.8338 23.7928 57.4457 23.8375 57.0739C23.8823 56.7021 24.0165 56.3551 24.2315 56.0559Z" fill="#1F94AA"/>
<path d="M55.7354 39.3798C55.4551 38.8377 54.499 37.7533 54.4945 36.7976C54.5646 36.3214 54.7579 35.8823 55.0598 35.5137C55.3617 35.1451 55.7644 34.8567 56.2372 34.6703C57.7167 34.1651 59.3646 34.0093 61.0424 34.2158C61.6403 34.3923 62.2065 34.6827 62.699 35.0658C63.1915 35.4489 63.5979 35.9149 63.888 36.4292C63.9936 36.9244 63.979 37.4182 63.8454 37.8756C63.7117 38.333 63.4623 38.7428 63.1146 39.076C61.6854 40.5557 58.2737 40.7718 55.7354 39.3798Z" fill="#1F94AA"/>
<path d="M48.5497 72.9952C50.4091 73.9916 51.2091 75.5749 50.4829 76.9123C49.6719 78.4055 45.7178 79.2207 43.9752 78.2445C43.2703 77.8293 42.716 77.2221 42.4109 76.531C42.1057 75.8399 42.0696 75.1097 42.309 74.4705C42.8248 73.5209 43.7565 72.8401 44.9154 72.5661C46.0742 72.2922 47.3735 72.4456 48.5497 72.9952Z" fill="#1F94AA"/>
<path d="M27.453 69.8702C29.3124 70.8666 30.1125 72.4499 29.3862 73.7873C28.5752 75.2805 24.6212 76.0957 22.8785 75.1195C22.1736 74.7043 21.6193 74.0971 21.3142 73.406C21.0091 72.7149 20.973 71.9847 21.2123 71.3455C21.7281 70.3959 22.6598 69.7151 23.8187 69.4411C24.9776 69.1672 26.2768 69.3206 27.453 69.8702Z" fill="#1F94AA"/>
<path d="M69.6598 25.6579C68.904 25.2117 68.3293 24.5407 68.0583 23.7879C67.7872 23.0351 67.8413 22.2603 68.2089 21.6286C69.2995 19.8085 72.6634 19.069 74.4688 20.2589C75.213 20.8376 75.7247 21.6193 75.9 22.4451C76.0753 23.2709 75.9009 24.0789 75.4124 24.7049C74.8123 25.4468 73.9178 25.9445 72.8737 26.1175C71.8296 26.2905 70.6972 26.1285 69.6598 25.6579Z" fill="#1F94AA"/>
<path d="M75.8236 89.2417C74.1126 88.3248 73.4953 86.1933 74.4582 84.5378C75.2825 83.02 77.6677 82.8364 79.8985 84.0424C80.2539 84.2282 80.574 84.4723 80.8393 84.7598C81.1045 85.0472 81.3094 85.372 81.4413 85.7143C81.5733 86.0566 81.6296 86.4093 81.6067 86.7507C81.5839 87.0922 81.4824 87.4153 81.3085 87.7003C80.4174 89.3413 77.5589 90.161 75.8236 89.2417Z" fill="#1F94AA"/>
<path d="M38.403 42.0935C40.3811 43.1535 41.1223 44.61 40.4678 45.9328C39.9677 46.6848 39.1284 47.1852 38.1283 47.3277C37.1283 47.4701 36.0462 47.2435 35.1119 46.6959C33.3267 45.6334 32.3218 43.2518 33.1499 42.0325C33.978 40.8133 36.1119 40.834 38.403 42.0935Z" fill="#1F94AA"/>
<path d="M38.7809 81.8108C40.759 82.8708 41.5003 84.3273 40.8457 85.6501C40.3456 86.4021 39.5064 86.9024 38.5063 87.0449C37.5062 87.1874 36.4241 86.9608 35.4898 86.4132C33.7047 85.3507 32.6997 82.9691 33.5278 81.7498C34.3559 80.5306 36.4898 80.5513 38.7809 81.8108Z" fill="#1F94AA"/>
<path d="M73.9 72.5874C74.6735 73.0208 75.2746 73.6838 75.5783 74.4384C75.882 75.193 75.8648 75.9812 75.5304 76.6388C74.7061 78.1567 71.4675 78.5715 69.3831 77.4015C68.7196 77.0574 68.1958 76.5095 67.9251 75.8767C67.6545 75.2438 67.6589 74.5771 67.9374 74.0211C68.6741 72.594 72.374 71.7061 73.9 72.5874Z" fill="#1F94AA"/>
<path d="M48.0592 25.7652C48.8327 26.1985 49.4338 26.8615 49.7375 27.6161C50.0411 28.3708 50.024 29.1589 49.6896 29.8166C48.8653 31.3344 45.6266 31.7492 43.5423 30.5793C42.8788 30.2352 42.355 29.6873 42.0843 29.0544C41.8136 28.4215 41.818 27.7548 42.0965 27.1988C42.8333 25.7717 46.5331 24.8838 48.0592 25.7652Z" fill="#1F94AA"/>
<path d="M12.8206 53.933C13.1652 54.0796 13.483 54.2844 13.7547 54.5347C14.0263 54.7849 14.246 55.0754 14.4003 55.3882C14.5545 55.701 14.64 56.0296 14.6515 56.3537C14.663 56.6778 14.6003 56.9905 14.4672 57.2728C14.05 58.1456 13.2585 58.7959 12.2474 59.0965C11.2363 59.3971 10.0786 59.3264 9.00059 58.8981C8.61251 58.7696 8.24808 58.5691 7.93327 58.3108C7.61846 58.0524 7.36105 57.7427 7.17937 57.4035C6.9977 57.0644 6.89624 56.7042 6.88225 56.3488C6.86825 55.9933 6.94204 55.6513 7.09838 55.3471C7.7876 53.937 11.0804 53.1169 12.8206 53.933Z" fill="#1F94AA"/>
<path d="M63.3921 94.548C63.7998 93.9374 64.4577 93.5097 65.2504 93.3399C66.0432 93.17 66.92 93.2689 67.7271 93.6192C68.4322 94.0381 68.9668 94.6669 69.2168 95.3709C69.4668 96.075 69.4123 96.7984 69.0648 97.3866C68.8836 97.736 68.6213 98.039 68.2931 98.2784C67.9649 98.5177 67.5772 98.6887 67.1521 98.7815C66.727 98.8744 66.2728 98.8873 65.8155 98.8195C65.3582 98.7517 64.9067 98.6046 64.4869 98.3865C63.833 97.9058 63.3615 97.2515 63.1602 96.5455C62.9588 95.8394 63.0412 95.1296 63.3921 94.548Z" fill="#1F94AA"/>
</svg>
