<svg width="60" height="60" viewBox="0 0 60 60" fill="none" xmlns="http://www.w3.org/2000/svg">
<path fill-rule="evenodd" clip-rule="evenodd" d="M52 14H41.998V12C41.9943 8.68783 39.3102 6.00372 35.998 6H23.998C20.6858 6.00372 18.0017 8.68783 17.998 12V14H8C5.79189 14.0025 4.00248 15.7919 4 18V50C4.00248 52.2081 5.79189 53.9975 8 54H52C54.2081 53.9975 55.9975 52.2081 56 50V18C55.9975 15.7919 54.2081 14.0025 52 14ZM32.72 23V30.8H40.28V35.76H32.72V43.56H27.6V35.76H20V30.8H27.6V23H32.72ZM35.998 10C37.102 10.0014 37.9966 10.896 37.998 12V14H21.998V12C21.9994 10.896 22.894 10.0014 23.998 10H35.998Z" fill="#AA92E1"/>
</svg>
