<svg width="60" height="60" viewBox="0 0 60 60" fill="none" xmlns="http://www.w3.org/2000/svg">
<path fill-rule="evenodd" clip-rule="evenodd" d="M28.0234 49.864C27.9006 50.3577 27.5865 50.7823 27.1502 51.044C26.714 51.3058 26.1915 51.3832 25.6981 51.2592L18.4729 49.4531C17.8867 49.3057 17.3434 49.0227 16.8867 48.6268L11.4807 43.9275C10.6864 43.2315 10.6043 42.0242 11.2972 41.2271C11.99 40.43 13.1969 40.3431 13.9968 41.0327L19.4033 45.7319L26.6285 47.5385C27.6559 47.7953 28.2805 48.8364 28.0237 49.8638L28.0234 49.864ZM59.8111 27.0314C59.4972 28.0119 58.7996 28.8234 57.8775 29.281L52.2996 32.0699L48.7165 36.2617C48.704 36.2761 48.6901 36.2897 48.6774 36.3039C48.6654 36.3168 48.6539 36.3298 48.6419 36.3422C48.6326 36.3518 48.6242 36.3621 48.6148 36.3715L39.7938 45.1928C39.0706 45.9115 38.0925 46.3147 37.0729 46.3147C36.7622 46.3147 36.4527 46.2766 36.1512 46.2013L22.2576 42.728C21.7361 42.5984 21.2479 42.36 20.8251 42.0285L7.87334 31.9007L2.12001 29.024C1.19981 28.5638 0.503072 27.7532 0.186314 26.7743C-0.130443 25.7954 -0.0406648 24.7303 0.435483 23.8182L6.33097 12.528C7.30639 10.682 9.57419 9.94816 11.4462 10.8727L16.8099 13.5545L28.4777 10.1531C29.3567 9.89716 30.2982 9.96372 31.1324 10.3408L39.0425 13.9198H42.9706L48.5513 11.1295C50.4233 10.204 52.6918 10.9382 53.6665 12.785L59.562 24.0749C60.0415 24.9862 60.1315 26.0528 59.8113 27.0314H59.8111ZM44.3157 35.2465L36.7285 29.7286L34.7932 31.1796C31.3784 33.7203 26.7013 33.7203 23.2865 31.1796L21.9872 30.2051C21.0977 29.538 20.5415 28.5178 20.4626 27.4087C20.3837 26.2997 20.79 25.211 21.5761 24.4247L30.9576 15.0434C31.0947 14.9084 31.2415 14.7837 31.397 14.6704L29.5512 13.8352L17.8712 17.2405L11.3421 29.7441L23.188 39.007L37.0816 42.4806L44.3157 35.2465ZM48.7944 30.2674L42.261 17.7552H38.634L38.6275 17.7556L38.6187 17.7552H33.6696L24.2886 27.1367L25.5878 28.1114C27.6368 29.6357 30.4429 29.6357 32.4918 28.1114L35.5603 25.8101C36.2337 25.3048 37.158 25.298 37.8388 25.7933L46.9531 32.4216L48.7944 30.2674Z" fill="#AA92E1"/>
</svg>
