<svg width="340" height="123" viewBox="0 0 340 123" fill="none" xmlns="http://www.w3.org/2000/svg">
<path d="M318.497 123H22.3934C19.5694 123 16.773 122.443 14.1639 121.359C11.5548 120.276 9.18412 118.688 7.18715 116.687C5.19019 114.685 3.60609 112.308 2.52531 109.693C1.44452 107.077 0.888229 104.274 0.888184 101.442L0.888184 21.5574C0.888274 18.7263 1.4446 15.9229 2.5254 13.3074C3.60619 10.6918 5.1903 8.31526 7.18725 6.31345C9.18421 4.31165 11.5549 2.72377 14.164 1.64049C16.7731 0.557217 19.5694 -0.000242164 22.3934 -6.0991e-05H318.497C324.2 -6.0991e-05 329.669 2.27117 333.702 6.31398C337.734 10.3568 340 15.84 340 21.5574V101.442C340 107.16 337.734 112.643 333.702 116.686C329.669 120.729 324.2 123 318.497 123Z" fill="#D0D5E7"/>
<path d="M86.4984 44.6766C85.6022 44.1993 84.8549 43.4832 84.3386 42.6073C83.8249 41.7061 83.5547 40.6861 83.5547 39.6481C83.5547 38.6101 83.8249 37.5901 84.3386 36.6889C84.8547 35.8129 85.6021 35.0967 86.4984 34.6196C87.4544 34.13 88.5126 33.8747 89.586 33.8747C90.6595 33.8747 91.7177 34.13 92.6736 34.6196C93.5679 35.0954 94.3149 35.8079 94.8334 36.6796C95.3472 37.5837 95.6173 38.6062 95.6173 39.6467C95.6173 40.6872 95.3472 41.7098 94.8334 42.6138C94.3155 43.4869 93.5684 44.2007 92.6736 44.6773C91.7177 45.1669 90.6595 45.4222 89.586 45.4222C88.5126 45.4222 87.4544 45.1669 86.4984 44.6773M91.603 43.087C92.1942 42.7572 92.6818 42.2684 93.0108 41.6757C93.3468 41.0529 93.5227 40.3559 93.5227 39.6478C93.5227 38.9396 93.3468 38.2427 93.0108 37.6198C92.6817 37.0271 92.1942 36.5384 91.603 36.2085C90.9832 35.8751 90.2907 35.7006 89.5872 35.7006C88.8838 35.7006 88.1913 35.8751 87.5714 36.2085C86.9803 36.5384 86.4927 37.0271 86.1637 37.6198C85.8277 38.2427 85.6517 38.9396 85.6517 39.6478C85.6517 40.3559 85.8277 41.0529 86.1637 41.6757C86.4927 42.2684 86.9803 42.7572 87.5714 43.087C88.1916 43.4193 88.884 43.5931 89.5872 43.5931C90.2905 43.5931 90.9828 43.4193 91.603 43.087Z" fill="#593C8F"/>
<path d="M105.884 36.6966L102.22 45.2613H100.156L96.4927 36.6966H98.5723L101.228 43.0461L103.964 36.6966H105.884Z" fill="#593C8F"/>
<path d="M115.609 36.6966V45.2613H113.705V44.1683C113.381 44.5566 112.97 44.862 112.505 45.0595C112.015 45.2712 111.487 45.378 110.953 45.373C110.463 45.4003 109.972 45.3299 109.51 45.1659C109.047 45.0019 108.621 44.7476 108.257 44.4177C107.603 43.7834 107.274 42.837 107.274 41.5878V36.6966H109.274V41.3157C109.225 41.9357 109.411 42.5512 109.795 43.0402C109.986 43.2357 110.217 43.3877 110.473 43.4857C110.728 43.5838 111.001 43.6257 111.274 43.6086C111.589 43.6236 111.903 43.572 112.197 43.4571C112.491 43.3423 112.757 43.1667 112.979 42.9419C113.429 42.41 113.656 41.7229 113.609 41.0264V36.6966H115.609Z" fill="#593C8F"/>
<path d="M120.231 33.3604H118.232V45.2609H120.231V33.3604Z" fill="#593C8F"/>
<path d="M129.099 37.5058C129.766 38.11 130.099 39.0212 130.1 40.2394V45.2596H128.212V44.217C127.954 44.6006 127.59 44.8994 127.163 45.0758C126.643 45.2867 126.085 45.388 125.524 45.3735C124.947 45.385 124.374 45.2725 123.844 45.0437C123.395 44.85 123.009 44.5324 122.731 44.1277C122.47 43.7372 122.333 43.2758 122.34 42.8054C122.329 42.4513 122.4 42.0994 122.548 41.7779C122.697 41.4564 122.918 41.1742 123.195 40.954C123.766 40.487 124.665 40.2573 125.892 40.2573H128.099V40.1273C128.115 39.8724 128.076 39.617 127.983 39.379C127.89 39.141 127.747 38.9263 127.563 38.7498C127.111 38.3963 126.543 38.2241 125.972 38.267C125.49 38.2671 125.012 38.3429 124.555 38.4915C124.127 38.6229 123.728 38.8353 123.38 39.1171L122.596 37.6593C123.081 37.2977 123.63 37.0305 124.213 36.8715C124.864 36.6875 125.537 36.5957 126.213 36.5987C127.47 36.5987 128.432 36.9011 129.099 37.5058M127.276 43.5683C127.659 43.3475 127.952 42.9978 128.102 42.5812V41.5886H126.038C124.886 41.5886 124.31 41.968 124.31 42.7268C124.305 42.8959 124.342 43.0637 124.417 43.2151C124.493 43.3665 124.604 43.4969 124.742 43.5945C125.097 43.8273 125.518 43.9391 125.942 43.9135C126.41 43.9221 126.871 43.8028 127.277 43.5686" fill="#593C8F"/>
<path d="M137.752 44.7956C137.498 44.996 137.207 45.1432 136.896 45.2284C136.549 45.3263 136.19 45.3749 135.829 45.3729C135.035 45.424 134.253 45.1589 133.653 44.6352C133.384 44.3497 133.177 44.0113 133.045 43.6414C132.913 43.2715 132.858 42.8782 132.886 42.4862V38.3651H131.479V36.7613H132.887V34.8047H134.887V36.7613H137.175V38.3651H134.887V42.4389C134.863 42.784 134.972 43.1251 135.191 43.3922C135.306 43.5064 135.444 43.5947 135.596 43.6512C135.747 43.7078 135.909 43.7313 136.071 43.7202C136.473 43.7355 136.869 43.6115 137.191 43.3691L137.752 44.7956Z" fill="#593C8F"/>
<path d="M139.495 34.941C139.379 34.8303 139.287 34.6971 139.223 34.5494C139.16 34.4018 139.127 34.2427 139.127 34.082C139.127 33.9213 139.16 33.7623 139.223 33.6146C139.287 33.4669 139.379 33.3337 139.495 33.2231C139.742 32.9923 140.07 32.8684 140.407 32.8782C140.742 32.8676 141.068 32.9849 141.319 33.2062C141.438 33.3082 141.533 33.4354 141.596 33.5786C141.66 33.7217 141.691 33.8772 141.688 34.0339C141.691 34.1988 141.662 34.3628 141.6 34.5158C141.538 34.6687 141.446 34.8073 141.328 34.923C141.208 35.0434 141.064 35.1376 140.905 35.1999C140.747 35.2621 140.578 35.291 140.407 35.2848C140.07 35.2945 139.742 35.1706 139.495 34.9399M139.399 36.6954H141.399V45.2601H139.399V36.6954Z" fill="#593C8F"/>
<path d="M145.603 44.8105C144.926 44.453 144.364 43.9113 143.98 43.2478C143.584 42.558 143.382 41.7733 143.395 40.9773C143.381 40.1848 143.584 39.4034 143.98 38.7176C144.365 38.0572 144.928 37.5182 145.603 37.1618C146.329 36.7916 147.132 36.5986 147.946 36.5986C148.761 36.5986 149.564 36.7916 150.29 37.1618C150.966 37.5177 151.528 38.0568 151.913 38.7176C152.31 39.4034 152.512 40.1848 152.498 40.9773C152.512 41.7733 152.31 42.5579 151.913 43.2478C151.53 43.9118 150.967 44.4535 150.29 44.8105C149.564 45.1806 148.761 45.3736 147.946 45.3736C147.132 45.3736 146.329 45.1806 145.603 44.8105ZM149.762 42.9167C150.227 42.3773 150.482 41.6885 150.482 40.9759C150.482 40.2634 150.227 39.5746 149.762 39.0352C149.526 38.7927 149.242 38.6019 148.928 38.475C148.614 38.348 148.277 38.2876 147.939 38.2975C147.602 38.287 147.266 38.3472 146.954 38.4742C146.641 38.6013 146.359 38.7923 146.124 39.0352C145.664 39.5767 145.411 40.2647 145.411 40.9759C145.411 41.6872 145.664 42.3752 146.124 42.9167C146.358 43.1599 146.641 43.3512 146.954 43.4783C147.266 43.6053 147.602 43.6653 147.939 43.6544C148.277 43.6648 148.614 43.6046 148.928 43.4776C149.242 43.3506 149.526 43.1596 149.762 42.9167Z" fill="#593C8F"/>
<path d="M161.951 37.5463C162.601 38.1773 162.927 39.1128 162.927 40.3531V45.2609H160.927V40.6097C160.972 39.9994 160.783 39.3949 160.399 38.9197C160.203 38.7231 159.967 38.5706 159.708 38.4723C159.449 38.374 159.172 38.3322 158.895 38.3496C158.574 38.3326 158.253 38.3829 157.953 38.4974C157.653 38.6118 157.38 38.7878 157.151 39.0142C156.694 39.5438 156.464 40.233 156.511 40.9318V45.2623H154.511V36.6962H156.415V37.8047C156.75 37.4049 157.179 37.0955 157.663 36.9048C158.203 36.6944 158.779 36.5909 159.359 36.5999C159.832 36.5775 160.304 36.6496 160.749 36.8121C161.194 36.9746 161.603 37.2242 161.95 37.5463" fill="#593C8F"/>
<path d="M172.197 44.6767C171.307 44.2001 170.565 43.4867 170.054 42.6149C169.543 41.7095 169.276 40.6869 169.277 39.6468C169.278 38.6068 169.548 37.5849 170.061 36.6807C170.578 35.81 171.322 35.0972 172.213 34.6189C173.155 34.1147 174.208 33.8584 175.275 33.874C176.137 33.8636 176.992 34.0278 177.789 34.3568C178.528 34.666 179.185 35.1438 179.708 35.7522L178.363 37.0194C177.988 36.5974 177.527 36.2614 177.011 36.0345C176.495 35.8075 175.936 35.6949 175.373 35.7043C174.653 35.6927 173.942 35.8669 173.309 36.2103C172.713 36.5356 172.22 37.0213 171.885 37.6126C171.55 38.239 171.375 38.9388 171.375 39.6495C171.375 40.3603 171.55 41.06 171.885 41.6865C172.219 42.2783 172.713 42.7643 173.309 43.0891C173.942 43.434 174.653 43.609 175.373 43.5972C175.938 43.6059 176.498 43.4914 177.014 43.2615C177.53 43.0317 177.991 42.6919 178.363 42.2659L179.708 43.5472C179.183 44.1575 178.523 44.6355 177.78 44.9426C176.981 45.271 176.124 45.4352 175.261 45.4254C174.193 45.4405 173.139 45.1842 172.196 44.6805" fill="#593C8F"/>
<path d="M183.04 44.8105C182.363 44.453 181.801 43.9113 181.417 43.2478C181.021 42.5579 180.819 41.7733 180.832 40.9773C180.819 40.1848 181.021 39.4034 181.417 38.7176C181.803 38.0572 182.365 37.5182 183.04 37.1618C183.766 36.7916 184.569 36.5986 185.384 36.5986C186.198 36.5986 187.001 36.7916 187.727 37.1618C188.403 37.5177 188.966 38.0568 189.35 38.7176C189.747 39.4034 189.949 40.1848 189.935 40.9773C189.949 41.7733 189.747 42.5579 189.35 43.2478C188.967 43.9118 188.405 44.4535 187.727 44.8105C187.001 45.1806 186.198 45.3736 185.384 45.3736C184.569 45.3736 183.766 45.1806 183.04 44.8105ZM187.2 42.918C187.664 42.3787 187.92 41.6899 187.92 40.9773C187.92 40.2648 187.664 39.576 187.2 39.0366C186.963 38.7941 186.679 38.6033 186.365 38.4764C186.051 38.3494 185.715 38.289 185.376 38.2989C185.039 38.2884 184.704 38.3486 184.391 38.4756C184.079 38.6027 183.796 38.7937 183.561 39.0366C183.101 39.578 182.848 40.2661 182.848 40.9773C182.848 41.6886 183.101 42.3766 183.561 42.918C183.796 43.1613 184.078 43.3526 184.391 43.4796C184.703 43.6067 185.039 43.6667 185.376 43.6558C185.715 43.6662 186.051 43.606 186.365 43.479C186.679 43.352 186.963 43.1609 187.2 42.918Z" fill="#593C8F"/>
<path d="M199.389 37.5464C200.04 38.1773 200.365 39.1129 200.365 40.3531V45.2609H198.365V40.6097C198.411 39.9995 198.222 39.3949 197.837 38.9197C197.641 38.7231 197.406 38.5706 197.147 38.4723C196.887 38.374 196.61 38.3322 196.333 38.3496C196.013 38.3326 195.692 38.383 195.392 38.4974C195.091 38.6118 194.818 38.7879 194.59 39.0142C194.132 39.5438 193.902 40.233 193.95 40.9318V45.2623H191.95V36.6962H193.854V37.8047C194.188 37.4049 194.617 37.0955 195.102 36.9048C195.642 36.6945 196.218 36.5909 196.797 36.6C197.27 36.5775 197.743 36.6496 198.188 36.812C198.633 36.9745 199.041 37.2241 199.389 37.5464Z" fill="#593C8F"/>
<path d="M205.195 36.2476V36.7608H207.546V38.3645H205.259V45.2624H203.259V38.3645H201.851V36.7608H203.259V36.2155C203.238 35.8178 203.298 35.42 203.435 35.0464C203.573 34.6727 203.785 34.3312 204.059 34.0427C204.628 33.5921 205.318 33.3203 206.041 33.2617C206.764 33.203 207.488 33.36 208.122 33.713L207.562 35.2226C207.24 34.9932 206.854 34.87 206.458 34.8698C205.616 34.8698 205.194 35.3296 205.194 36.2493M210.266 34.9432C210.15 34.8326 210.057 34.6994 209.994 34.5517C209.93 34.404 209.898 34.245 209.898 34.0843C209.898 33.9236 209.93 33.7645 209.994 33.6168C210.057 33.4692 210.15 33.336 210.266 33.2253C210.513 32.9946 210.84 32.8707 211.178 32.8804C211.512 32.8699 211.838 32.9871 212.09 33.2084C212.209 33.3105 212.303 33.4377 212.367 33.5808C212.43 33.7239 212.462 33.8795 212.458 34.0361C212.462 34.2011 212.432 34.3651 212.37 34.518C212.309 34.6709 212.216 34.8095 212.099 34.9253C211.978 35.0456 211.834 35.1399 211.676 35.2021C211.517 35.2643 211.348 35.2933 211.178 35.2871C210.84 35.2968 210.513 35.1729 210.266 34.9422M210.17 36.6977H212.17V45.2624H210.17V36.6977Z" fill="#593C8F"/>
<path d="M219.796 36.5986V38.5073C219.643 38.4778 219.488 38.4616 219.332 38.459C218.998 38.4398 218.663 38.4906 218.349 38.6081C218.035 38.7256 217.749 38.9072 217.509 39.1415C217.04 39.6837 216.805 40.3896 216.853 41.1053V45.2592H214.853V36.6966H216.756V37.9475C217.332 37.0476 218.345 36.5979 219.796 36.5986" fill="#593C8F"/>
<path d="M234.847 37.5374C235.476 38.1647 235.791 39.1033 235.791 40.3531V45.261H233.791V40.6097C233.836 40.0038 233.659 39.4022 233.295 38.9167C233.114 38.7224 232.893 38.5706 232.647 38.4724C232.401 38.3741 232.136 38.3317 231.871 38.3483C231.57 38.3352 231.269 38.3878 230.99 38.5025C230.711 38.6173 230.46 38.7914 230.254 39.0129C229.818 39.5464 229.601 40.2261 229.646 40.9143V45.2599H227.647V40.6097C227.691 40.0038 227.515 39.4022 227.151 38.9167C226.97 38.7224 226.748 38.5706 226.502 38.4724C226.256 38.3741 225.991 38.3317 225.727 38.3483C225.425 38.3336 225.123 38.3847 224.843 38.4982C224.563 38.6117 224.311 38.7849 224.104 39.0056C223.669 39.5424 223.455 40.2247 223.503 40.9143V45.2599H221.504V36.6962H223.408V37.7868C223.731 37.3997 224.143 37.0969 224.608 36.9046C225.116 36.696 225.66 36.5923 226.208 36.5997C226.796 36.5879 227.378 36.7117 227.911 36.9615C228.398 37.1939 228.808 37.5644 229.088 38.0272C229.448 37.5709 229.915 37.2104 230.448 36.9777C231.027 36.7204 231.654 36.591 232.287 36.5983C232.755 36.5735 233.223 36.6438 233.663 36.8049C234.103 36.966 234.506 37.2146 234.847 37.5357" fill="#593C8F"/>
<path d="M246.438 41.6207H239.735C239.834 42.2218 240.165 42.7598 240.656 43.1193C241.194 43.5019 241.843 43.6966 242.503 43.6735C242.933 43.6868 243.361 43.6109 243.761 43.4507C244.16 43.2904 244.522 43.0493 244.824 42.7423L245.896 43.9774C245.505 44.4415 245.004 44.8 244.439 45.02C243.718 45.2848 242.953 45.4029 242.186 45.3673C241.42 45.3318 240.668 45.1434 239.975 44.8131C239.286 44.461 238.711 43.9179 238.32 43.2483C237.925 42.5582 237.723 41.7737 237.735 40.9779C237.724 40.19 237.921 39.4131 238.304 38.7254C238.673 38.0672 239.219 37.5258 239.879 37.1623C240.576 36.7811 241.359 36.5871 242.153 36.5991C242.932 36.5864 243.701 36.7774 244.384 37.1533C245.033 37.5152 245.565 38.0548 245.919 38.7092C246.298 39.422 246.487 40.2202 246.47 41.0275C246.47 41.1655 246.459 41.3633 246.438 41.6211M240.528 38.7733C240.081 39.162 239.793 39.7024 239.719 40.2908H244.567C244.501 39.7087 244.223 39.1716 243.785 38.7833C243.324 38.4112 242.75 38.2075 242.158 38.2059C241.566 38.2043 240.992 38.4047 240.529 38.7743" fill="#593C8F"/>
<path d="M256.957 33.3604V45.2609H255.037V44.1541C254.711 44.5562 254.29 44.8704 253.813 45.0684C253.303 45.2763 252.756 45.3799 252.206 45.3729C251.432 45.3849 250.669 45.1971 249.989 44.8277C249.339 44.469 248.804 43.9326 248.446 43.2808C248.064 42.575 247.871 41.7815 247.886 40.9783C247.87 40.1779 248.063 39.3872 248.446 38.6848C248.806 38.0363 249.341 37.5026 249.989 37.1452C250.669 36.7758 251.432 36.588 252.206 36.5999C252.737 36.5934 253.264 36.6915 253.758 36.8886C254.221 37.0768 254.633 37.3738 254.958 37.7546V33.3604H256.957ZM253.741 43.3277C254.128 43.1077 254.444 42.7827 254.653 42.3903C254.874 41.9528 254.989 41.4693 254.989 40.9789C254.989 40.4885 254.874 40.0049 254.653 39.5674C254.443 39.1749 254.127 38.8495 253.741 38.6282C253.343 38.413 252.898 38.3003 252.446 38.3003C251.993 38.3003 251.548 38.413 251.15 38.6282C250.764 38.8495 250.448 39.1749 250.238 39.5674C250.017 40.0049 249.902 40.4885 249.902 40.9789C249.902 41.4693 250.017 41.9528 250.238 42.3903C250.447 42.7827 250.764 43.1077 251.15 43.3277C251.547 43.5441 251.993 43.6574 252.446 43.6574C252.898 43.6574 253.344 43.5441 253.741 43.3277Z" fill="#593C8F"/>
<g opacity="0.37">
<path d="M58.1915 21.2479C57.6001 20.6624 56.8969 20.2027 56.1241 19.8962C55.3512 19.5897 54.5246 19.4427 53.6937 19.4641C52.8591 19.4759 52.0351 19.6541 51.2697 19.9881C50.5043 20.3222 49.8129 20.8055 49.2355 21.41L46.7008 24.0564L44.1481 21.4083C43.57 20.8053 42.8787 20.3228 42.114 19.9886C41.3492 19.6544 40.5261 19.475 39.692 19.4608C38.8579 19.4466 38.0292 19.5978 37.2535 19.9058C36.4779 20.2138 35.7706 20.6724 35.1724 21.2553C34.5742 21.8383 34.0968 22.534 33.7677 23.3025C33.4386 24.0711 33.2643 24.8972 33.2548 25.7335C33.2453 26.5698 33.4008 27.3998 33.7123 28.1756C34.0238 28.9515 34.4852 29.6579 35.07 30.2544L46.2508 40.3087C46.3756 40.4202 46.537 40.4816 46.7042 40.4812C46.8718 40.482 47.0336 40.4197 47.1576 40.3066L58.3511 30.2182C59.073 29.4702 59.6003 28.5558 59.8867 27.5555C60.1731 26.5551 60.2098 25.4995 59.9935 24.4816C59.7322 23.2462 59.1045 22.1187 58.1929 21.2472" fill="#593C8F"/>
</g>
<path d="M46.7025 46.3374L37.4056 38.0365C37.1441 37.8031 36.9311 37.5203 36.7787 37.2043C36.6262 36.8883 36.5374 36.5454 36.5171 36.195C36.4969 35.8446 36.5457 35.4936 36.6608 35.1621C36.7759 34.8307 36.955 34.5251 37.1878 34.263C37.4207 34.0009 37.7027 33.7874 38.0179 33.6345C38.3331 33.4817 38.6752 33.3926 39.0247 33.3724C39.3742 33.3521 39.7243 33.401 40.0549 33.5164C40.3856 33.6318 40.6903 33.8113 40.9518 34.0447L46.6935 39.1708L58.3559 28.7013C58.8827 28.2284 59.5753 27.9847 60.2814 28.0238C60.9874 28.0629 61.6491 28.3816 62.1207 28.9098C62.5924 29.4379 62.8355 30.1323 62.7965 30.8401C62.7575 31.548 62.4396 32.2112 61.9128 32.6841L46.7025 46.3374Z" fill="#593C8F"/>
<path d="M39.5118 68.2432V71.5452H37.7786V68.2687L34.1113 62.1882H35.9653L38.6975 66.7449L41.4579 62.1882H43.1643L39.5118 68.2432Z" fill="#112D35"/>
<path d="M45.3898 71.1706C44.8263 70.871 44.3577 70.4191 44.0371 69.8663C43.7177 69.2888 43.55 68.6393 43.55 67.979C43.55 67.3187 43.7177 66.6692 44.0371 66.0917C44.3591 65.5423 44.8276 65.0936 45.3898 64.7963C45.9896 64.4783 46.6596 64.317 47.338 64.3276C48.0194 64.316 48.6926 64.4771 49.2952 64.796C49.8583 65.0927 50.3275 65.5414 50.6496 66.0914C50.9691 66.6689 51.1367 67.3183 51.1367 67.9786C51.1367 68.639 50.9691 69.2884 50.6496 69.8659C50.3289 70.4193 49.8596 70.8712 49.2952 71.1703C48.6917 71.4882 48.018 71.6488 47.3363 71.6373C46.6582 71.6476 45.9883 71.487 45.3881 71.1703M48.8562 69.5931C49.2427 69.1434 49.4553 68.5695 49.4553 67.9759C49.4553 67.3823 49.2427 66.8084 48.8562 66.3587C48.6591 66.1563 48.4222 65.9972 48.1606 65.8913C47.899 65.7855 47.6183 65.7352 47.3363 65.7438C47.0551 65.7343 46.7751 65.7841 46.5143 65.8901C46.2536 65.996 46.0179 66.1556 45.8226 66.3587C45.4383 66.8094 45.2272 67.3829 45.2272 67.9759C45.2272 68.5689 45.4383 69.1423 45.8226 69.5931C46.0182 69.7958 46.2539 69.9553 46.5146 70.0612C46.7753 70.1671 47.0552 70.2171 47.3363 70.208C47.6183 70.2161 47.8988 70.1657 48.1604 70.0598C48.422 69.954 48.6589 69.7951 48.8562 69.5931Z" fill="#112D35"/>
<path d="M59.6301 64.4076V71.5448H58.0427V70.636C57.7736 70.9591 57.4316 71.2133 57.0451 71.3775C56.6364 71.5538 56.1957 71.6429 55.7509 71.6393C55.3427 71.6618 54.9341 71.6029 54.5488 71.4662C54.1634 71.3294 53.8089 71.1175 53.5058 70.8426C52.9583 70.3115 52.6846 69.525 52.6846 68.4832V64.4076H54.3521V68.2569C54.3118 68.7731 54.4659 69.2856 54.7841 69.6934C54.9437 69.8566 55.1366 69.9834 55.3494 70.0652C55.5623 70.147 55.7903 70.1818 56.0178 70.1673C56.2801 70.1803 56.5422 70.1376 56.7869 70.0421C57.0316 69.9466 57.2534 69.8004 57.4379 69.613C57.8155 69.1698 58.005 68.596 57.966 68.0145V64.4076H59.6301Z" fill="#112D35"/>
<path d="M71.6939 65.1149C72.2361 65.6406 72.5075 66.4199 72.5082 67.453V71.5427H70.8407V67.6685C70.8799 67.1594 70.7221 66.6546 70.4 66.259C70.237 66.0947 70.0408 65.9672 69.8247 65.8851C69.6085 65.803 69.3774 65.7682 69.1467 65.783C68.8794 65.7692 68.6122 65.8115 68.3621 65.9072C68.112 66.003 67.8847 66.15 67.6946 66.339C67.3135 66.779 67.1218 67.3524 67.1614 67.9338V71.5424H65.4956V61.6257H67.1614V65.2343C67.4459 64.9344 67.7949 64.7035 68.1817 64.559C68.6148 64.4 69.0732 64.3214 69.5344 64.3272C69.9286 64.3083 70.3225 64.3683 70.6933 64.5035C71.0641 64.6387 71.4043 64.8466 71.6942 65.1149" fill="#112D35"/>
<path d="M79.7525 65.0829C80.3071 65.5855 80.5849 66.3443 80.5861 67.3592V71.5434H79.0132V70.6757C78.7989 70.9949 78.4952 71.2435 78.1404 71.3903C77.7064 71.5653 77.2413 71.6496 76.7736 71.6379C76.2929 71.6485 75.8157 71.5543 75.3748 71.362C75.0002 71.2016 74.6783 70.9386 74.4459 70.6032C74.2288 70.2768 74.1153 69.892 74.1205 69.4996C74.1103 69.2041 74.1696 68.9103 74.2934 68.6419C74.4172 68.3736 74.6021 68.1381 74.8333 67.9545C75.3078 67.5677 76.0568 67.3741 77.0801 67.3737H78.9183V67.2668C78.932 67.054 78.899 66.8409 78.8218 66.6423C78.7445 66.4437 78.6248 66.2645 78.471 66.1172C78.0937 65.8237 77.6211 65.6809 77.1448 65.7165C76.744 65.7166 76.3458 65.7796 75.9645 65.9034C75.6076 66.0128 75.275 66.1901 74.985 66.4256L74.3314 65.2084C74.7353 64.9079 75.1916 64.6857 75.6769 64.5531C76.2186 64.3996 76.7793 64.3234 77.3423 64.3269C78.3911 64.3269 79.1938 64.5788 79.7504 65.0825M78.2326 70.1349C78.5516 69.9509 78.7948 69.6591 78.9186 69.3116V68.4839H77.1985C76.2387 68.4839 75.7587 68.8005 75.7587 69.4337C75.7543 69.5746 75.785 69.7144 75.848 69.8404C75.911 69.9665 76.0044 70.0748 76.1196 70.1556C76.4149 70.3498 76.7647 70.4435 77.1173 70.4229C77.5073 70.4297 77.8919 70.3305 78.2302 70.1359" fill="#112D35"/>
<path d="M89.3855 64.4076L86.3316 71.5448H84.6115L81.5576 64.4076H83.2918L85.5049 69.7003L87.7855 64.4076H89.3855Z" fill="#112D35"/>
<path d="M97.0904 68.5116H91.5055C91.5886 69.0122 91.8635 69.4605 92.2717 69.7608C92.7207 70.0792 93.2615 70.2413 93.8112 70.2222C94.1696 70.2335 94.5265 70.1703 94.8593 70.0366C95.1922 69.9029 95.4938 69.7015 95.7453 69.4452L96.6377 70.4771C96.3121 70.8632 95.8953 71.1615 95.4253 71.3449C94.8979 71.5471 94.3369 71.6469 93.7723 71.6391C93.0554 71.6539 92.3458 71.493 91.7051 71.1703C91.13 70.8779 90.6511 70.4257 90.3255 69.8677C89.9957 69.2925 89.8274 68.6386 89.8384 67.9753C89.8289 67.3187 89.9927 66.6713 90.3132 66.0987C90.6197 65.5496 91.0743 65.0981 91.6249 64.796C92.2045 64.4781 92.8565 64.3166 93.517 64.3273C94.1669 64.3161 94.8085 64.4752 95.3782 64.7888C95.9189 65.0903 96.3624 65.5405 96.6563 66.0863C96.9726 66.6798 97.1311 67.3449 97.1166 68.0177C97.1166 68.1336 97.1076 68.2991 97.0901 68.513M92.1637 66.138C91.7909 66.461 91.5509 66.9112 91.4901 67.4014H95.5316C95.4776 66.91 95.2397 66.4575 94.866 66.135C94.4922 65.8125 94.0104 65.6441 93.5177 65.6638C93.0241 65.6503 92.5427 65.8191 92.165 66.138" fill="#112D35"/>
<path d="M102.904 71.411C102.435 71.2965 101.989 71.1024 101.585 70.8371L102.225 69.5665C102.579 69.7971 102.968 69.9709 103.376 70.0814C103.808 70.2072 104.255 70.2719 104.704 70.2739C105.7 70.2739 106.197 70.0113 106.197 69.4862C106.2 69.3694 106.165 69.2549 106.096 69.1607C106.027 69.0665 105.929 68.9979 105.817 68.9657C105.42 68.8328 105.012 68.7384 104.597 68.6839C104.112 68.6163 103.633 68.5139 103.163 68.3773C102.796 68.2611 102.465 68.0511 102.203 67.7679C101.916 67.4328 101.77 66.999 101.796 66.558C101.789 66.2377 101.864 65.9209 102.012 65.6371C102.16 65.3533 102.378 65.1117 102.644 64.9346C103.324 64.497 104.123 64.2844 104.93 64.3269C105.424 64.3281 105.915 64.3843 106.397 64.4945C106.817 64.5815 107.222 64.7327 107.597 64.9429L106.957 66.2135C106.338 65.8526 105.633 65.6672 104.918 65.6772C104.533 65.6551 104.15 65.7312 103.803 65.8982C103.692 65.9502 103.598 66.0321 103.531 66.1346C103.464 66.2372 103.426 66.3564 103.422 66.479C103.42 66.6055 103.458 66.7294 103.531 66.8323C103.604 66.9352 103.709 67.0114 103.829 67.0495C104.238 67.1956 104.66 67.3006 105.09 67.363C105.564 67.43 106.032 67.5325 106.49 67.6696C106.849 67.7815 107.172 67.984 107.429 68.2577C107.71 68.583 107.851 69.0061 107.824 69.4355C107.828 69.7547 107.751 70.0698 107.599 70.3504C107.447 70.631 107.226 70.8676 106.956 71.0375C106.249 71.475 105.426 71.6852 104.597 71.64C104.025 71.6406 103.455 71.564 102.903 71.412" fill="#112D35"/>
<path d="M116.156 64.4076V71.5448H114.569V70.636C114.3 70.9591 113.958 71.2133 113.571 71.3775C113.162 71.5538 112.722 71.6429 112.277 71.6393C111.869 71.6618 111.46 71.6029 111.075 71.4662C110.689 71.3294 110.335 71.1175 110.032 70.8426C109.484 70.3115 109.21 69.525 109.21 68.4832V64.4076H110.878V68.2569C110.838 68.7731 110.992 69.2856 111.31 69.6934C111.47 69.8566 111.662 69.9834 111.875 70.0652C112.088 70.147 112.316 70.1818 112.544 70.1673C112.806 70.1803 113.068 70.1376 113.313 70.0421C113.557 69.9466 113.779 69.8004 113.964 69.613C114.341 69.1698 114.531 68.596 114.492 68.0145V64.4076H116.156Z" fill="#112D35"/>
<path d="M119.621 71.1705C119.051 70.8737 118.576 70.4223 118.249 69.8678C117.915 69.2943 117.744 68.6397 117.755 67.9754C117.743 67.3138 117.914 66.6619 118.249 66.0916C118.576 65.5414 119.048 65.0928 119.614 64.7959C120.23 64.4749 120.916 64.3137 121.61 64.3271C122.251 64.3127 122.885 64.4598 123.455 64.7548C123.973 65.0277 124.391 65.4582 124.649 65.9844L123.368 66.7328C123.183 66.4214 122.919 66.1654 122.602 65.9916C122.292 65.8253 121.946 65.7402 121.595 65.744C121.31 65.7346 121.025 65.7836 120.759 65.8881C120.493 65.9926 120.251 66.1503 120.047 66.3517C119.653 66.8002 119.435 67.3769 119.434 67.9746C119.433 68.5722 119.648 69.1499 120.04 69.6002C120.378 69.9171 120.805 70.1218 121.263 70.1863C121.721 70.2507 122.188 70.1718 122.6 69.9603C122.917 69.7869 123.182 69.5309 123.366 69.2191L124.647 69.9675C124.379 70.4928 123.959 70.924 123.441 71.2043C122.876 71.5028 122.246 71.6525 121.608 71.6392C120.917 71.6501 120.234 71.4891 119.621 71.1705" fill="#112D35"/>
<path d="M127.366 71.1706C126.796 70.8738 126.321 70.4224 125.994 69.8679C125.659 69.2944 125.489 68.6398 125.5 67.9755C125.488 67.3139 125.659 66.6619 125.994 66.0917C126.321 65.5416 126.793 65.0932 127.359 64.7963C127.975 64.4753 128.661 64.3142 129.354 64.3276C129.995 64.3131 130.63 64.4602 131.199 64.7552C131.717 65.0282 132.135 65.4586 132.394 65.9848L131.112 66.7332C130.928 66.4218 130.663 66.1659 130.346 65.992C130.037 65.8258 129.691 65.7406 129.34 65.7444C129.054 65.735 128.77 65.784 128.503 65.8885C128.237 65.993 127.995 66.1507 127.792 66.3521C127.398 66.8006 127.18 67.3774 127.178 67.975C127.177 68.5726 127.393 69.1504 127.784 69.6006C128.122 69.9176 128.549 70.1222 129.008 70.1867C129.466 70.2511 129.933 70.1722 130.344 69.9607C130.662 69.7874 130.926 69.5313 131.111 69.2195L132.392 69.9679C132.124 70.4932 131.703 70.9245 131.185 71.2047C130.621 71.5032 129.99 71.6529 129.353 71.6396C128.662 71.6506 127.979 71.4895 127.365 71.1709" fill="#112D35"/>
<path d="M140.498 68.5116H134.913C134.996 69.0122 135.271 69.4605 135.679 69.7608C136.128 70.0792 136.669 70.2413 137.218 70.2222C137.577 70.2335 137.934 70.1703 138.267 70.0366C138.599 69.9029 138.901 69.7015 139.153 69.4452L140.045 70.4771C139.719 70.8632 139.303 71.1616 138.833 71.3449C138.305 71.5471 137.744 71.6469 137.18 71.6391C136.463 71.6539 135.753 71.493 135.112 71.1703C134.537 70.8779 134.058 70.4257 133.733 69.8677C133.403 69.2925 133.235 68.6386 133.246 67.9753C133.236 67.3187 133.4 66.6713 133.72 66.0987C134.027 65.5496 134.482 65.0981 135.032 64.796C135.612 64.4781 136.264 64.3166 136.924 64.3273C137.574 64.3161 138.216 64.4752 138.785 64.7888C139.326 65.0903 139.77 65.5405 140.063 66.0863C140.38 66.6798 140.538 67.3449 140.524 68.0177C140.524 68.1336 140.515 68.2991 140.497 68.513M135.572 66.1394C135.199 66.4624 134.959 66.9126 134.898 67.4027H138.939C138.885 66.9114 138.647 66.4588 138.273 66.1364C137.899 65.8139 137.418 65.6455 136.925 65.6652C136.431 65.6517 135.95 65.8205 135.572 66.1394" fill="#112D35"/>
<path d="M142.631 71.411C142.162 71.2963 141.717 71.1022 141.313 70.8371L141.953 69.5665C142.308 69.7972 142.697 69.9709 143.105 70.0814C143.536 70.2072 143.983 70.2719 144.433 70.2739C145.428 70.2739 145.926 70.0113 145.926 69.4862C145.929 69.3694 145.893 69.2549 145.824 69.1607C145.756 69.0665 145.657 68.9979 145.545 68.9657C145.149 68.8328 144.74 68.7384 144.326 68.6839C143.841 68.6163 143.362 68.5139 142.891 68.3773C142.524 68.2611 142.193 68.0511 141.931 67.7679C141.644 67.4328 141.498 66.999 141.524 66.558C141.518 66.2377 141.592 65.9209 141.74 65.6371C141.889 65.3533 142.106 65.1117 142.372 64.9346C143.052 64.497 143.852 64.2844 144.659 64.3269C145.152 64.3281 145.644 64.3843 146.125 64.4945C146.546 64.5815 146.95 64.7327 147.325 64.9429L146.685 66.2135C146.067 65.8526 145.362 65.6672 144.646 65.6772C144.262 65.6551 143.878 65.7312 143.531 65.8982C143.421 65.9502 143.326 66.0321 143.259 66.1346C143.192 66.2372 143.155 66.3564 143.151 66.479C143.148 66.6055 143.186 66.7294 143.26 66.8323C143.333 66.9352 143.438 67.0114 143.558 67.0495C143.967 67.1956 144.389 67.3006 144.818 67.363C145.292 67.43 145.76 67.5325 146.219 67.6696C146.577 67.7815 146.9 67.984 147.158 68.2577C147.438 68.583 147.58 69.0061 147.552 69.4355C147.557 69.7547 147.48 70.0698 147.328 70.3504C147.176 70.631 146.954 70.8676 146.684 71.0375C145.978 71.475 145.155 71.6852 144.326 71.64C143.753 71.6406 143.183 71.564 142.632 71.412" fill="#112D35"/>
<path d="M149.498 71.411C149.029 71.2964 148.583 71.1023 148.179 70.8371L148.819 69.5665C149.174 69.7971 149.562 69.9708 149.971 70.0814C150.402 70.2071 150.849 70.2719 151.299 70.2739C152.294 70.2739 152.792 70.0113 152.792 69.4861C152.795 69.3694 152.759 69.2549 152.69 69.1607C152.621 69.0665 152.523 68.9979 152.411 68.9657C152.015 68.8328 151.606 68.7384 151.192 68.6839C150.707 68.6163 150.227 68.5138 149.757 68.3773C149.39 68.261 149.059 68.051 148.797 67.7679C148.51 67.4328 148.364 66.9989 148.39 66.558C148.384 66.2375 148.458 65.9206 148.606 65.6366C148.755 65.3527 148.972 65.1109 149.239 64.9339C149.918 64.4963 150.718 64.2837 151.525 64.3262C152.018 64.3273 152.51 64.3835 152.991 64.4938C153.412 64.5807 153.816 64.7319 154.191 64.9422L153.551 66.2127C152.933 65.8519 152.228 65.6665 151.512 65.6764C151.128 65.6544 150.744 65.7304 150.398 65.8975C150.287 65.9495 150.192 66.0314 150.125 66.1339C150.058 66.2365 150.021 66.3557 150.017 66.4783C150.014 66.6048 150.052 66.7287 150.126 66.8316C150.199 66.9344 150.304 67.0107 150.424 67.0488C150.833 67.1948 151.255 67.2998 151.684 67.3623C152.158 67.4292 152.626 67.5317 153.085 67.6689C153.443 67.7808 153.766 67.9833 154.024 68.2569C154.305 68.5821 154.447 69.0052 154.42 69.4347C154.424 69.754 154.347 70.069 154.195 70.3496C154.043 70.6302 153.822 70.8669 153.552 71.0368C152.846 71.4742 152.023 71.6845 151.193 71.6393C150.621 71.6399 150.051 71.5632 149.499 71.4113" fill="#112D35"/>
<path d="M157.695 64.0335V64.4611H159.656V65.7976H157.749V71.5459H156.083V65.7979H154.91V64.4615H156.083V64.0052C156.065 63.674 156.114 63.3426 156.229 63.0315C156.344 62.7204 156.521 62.4362 156.75 62.1966C157.003 61.9657 157.299 61.7882 157.622 61.6746C157.945 61.561 158.287 61.5137 158.629 61.5354C159.159 61.5059 159.685 61.6403 160.136 61.9203L159.669 63.1785C159.4 62.9872 159.079 62.8838 158.75 62.8826C158.048 62.8826 157.697 63.2663 157.696 64.0338" fill="#112D35"/>
<path d="M167.667 64.4076V71.5448H166.08V70.636C165.811 70.9591 165.469 71.2133 165.082 71.3775C164.674 71.5538 164.233 71.6429 163.788 71.6393C163.38 71.6618 162.971 71.6029 162.586 71.4662C162.201 71.3294 161.846 71.1175 161.543 70.8426C160.995 70.3115 160.722 69.525 160.722 68.4832V64.4076H162.389V68.2569C162.349 68.7731 162.503 69.2856 162.821 69.6934C162.981 69.8566 163.174 69.9834 163.387 70.0652C163.599 70.147 163.827 70.1818 164.055 70.1673C164.317 70.1803 164.579 70.1376 164.824 70.0421C165.069 69.9466 165.291 69.8004 165.475 69.613C165.853 69.1698 166.042 68.596 166.003 68.0145V64.4076H167.667Z" fill="#112D35"/>
<path d="M171.52 61.6257H169.855V71.5427H171.52V61.6257Z" fill="#112D35"/>
<path d="M175.373 61.6257H173.708V71.5427H175.373V61.6257Z" fill="#112D35"/>
<path d="M184.226 64.4076L180.893 72.1187C180.676 72.7613 180.283 73.3292 179.757 73.7566C179.284 74.0828 178.719 74.2495 178.145 74.2326C177.787 74.231 177.431 74.1721 177.091 74.0581C176.776 73.9596 176.485 73.795 176.238 73.5752L176.905 72.3457C177.07 72.4998 177.262 72.6219 177.472 72.7057C177.681 72.7931 177.905 72.8385 178.131 72.8392C178.392 72.8494 178.649 72.7689 178.858 72.6112C179.09 72.4028 179.27 72.143 179.384 71.8525L179.505 71.571L176.398 64.4073H178.131L180.37 69.6841L182.624 64.4073L184.226 64.4076Z" fill="#112D35"/>
<path d="M190.198 71.1706C189.634 70.872 189.165 70.4199 188.846 69.8662C188.526 69.2888 188.359 68.6393 188.359 67.979C188.359 67.3186 188.526 66.6692 188.846 66.0917C189.167 65.5415 189.635 65.0926 190.198 64.7963C190.804 64.4882 191.473 64.3276 192.152 64.3276C192.831 64.3276 193.5 64.4882 194.106 64.7963C194.668 65.0936 195.136 65.5422 195.458 66.0917C195.778 66.6692 195.945 67.3186 195.945 67.979C195.945 68.6393 195.778 69.2888 195.458 69.8662C195.138 70.4191 194.669 70.871 194.106 71.1706C193.5 71.4776 192.831 71.6375 192.152 71.6375C191.473 71.6375 190.804 71.4776 190.198 71.1706ZM193.665 69.5934C194.051 69.1437 194.264 68.5698 194.264 67.9762C194.264 67.3826 194.051 66.8087 193.665 66.359C193.468 66.1565 193.231 65.9973 192.969 65.8914C192.708 65.7856 192.427 65.7354 192.145 65.7441C191.864 65.7348 191.584 65.7847 191.323 65.8906C191.062 65.9965 190.827 66.1561 190.631 66.359C190.248 66.8103 190.038 67.3836 190.038 67.9762C190.038 68.5689 190.248 69.1422 190.631 69.5934C190.827 69.796 191.063 69.9553 191.323 70.0612C191.584 70.1671 191.864 70.2172 192.145 70.2084C192.427 70.2166 192.707 70.1662 192.969 70.0604C193.231 69.9546 193.468 69.7956 193.665 69.5934Z" fill="#112D35"/>
<path d="M204.21 64.4076L201.156 71.5448H199.436L196.382 64.4076H198.115L200.328 69.7003L202.609 64.4076H204.21Z" fill="#112D35"/>
<path d="M212.143 64.4076V71.5448H210.556V70.636C210.287 70.9591 209.945 71.2133 209.558 71.3775C209.149 71.5538 208.709 71.6429 208.264 71.6393C207.856 71.6618 207.447 71.6029 207.062 71.4662C206.676 71.3294 206.322 71.1175 206.019 70.8426C205.471 70.3115 205.198 69.525 205.198 68.4832V64.4076H206.865V68.2569C206.825 68.7731 206.979 69.2856 207.297 69.6934C207.457 69.8566 207.649 69.9834 207.862 70.0652C208.075 70.147 208.303 70.1818 208.531 70.1673C208.793 70.1803 209.055 70.1376 209.3 70.0421C209.545 69.9466 209.766 69.8004 209.951 69.613C210.328 69.1698 210.518 68.596 210.479 68.0145V64.4076H212.143Z" fill="#112D35"/>
<path d="M215.994 61.6257H214.329V71.5427H215.994V61.6257Z" fill="#112D35"/>
<path d="M223.308 65.0829C223.862 65.5855 224.14 66.3443 224.141 67.3592V71.5434H222.568V70.6757C222.354 70.9949 222.05 71.2435 221.695 71.3903C221.261 71.5653 220.796 71.6496 220.328 71.6379C219.848 71.6485 219.37 71.5543 218.929 71.362C218.555 71.2016 218.233 70.9386 218.001 70.6032C217.783 70.2768 217.67 69.892 217.675 69.4996C217.665 69.2041 217.724 68.9103 217.848 68.6419C217.972 68.3736 218.157 68.1381 218.388 67.9545C218.863 67.5677 219.611 67.3741 220.635 67.3737H222.473V67.2668C222.487 67.054 222.454 66.8409 222.376 66.6423C222.299 66.4437 222.179 66.2645 222.026 66.1172C221.648 65.8237 221.176 65.6809 220.699 65.7165C220.299 65.7166 219.9 65.7796 219.519 65.9034C219.162 66.0128 218.83 66.1901 218.54 66.4256L217.886 65.2084C218.29 64.9079 218.746 64.6857 219.232 64.5531C219.773 64.3996 220.334 64.3234 220.897 64.3269C221.946 64.3269 222.749 64.5788 223.305 65.0825M221.786 70.1345C222.105 69.9506 222.348 69.6587 222.472 69.3113V68.4835H220.751C219.792 68.4835 219.312 68.8002 219.312 69.4334C219.307 69.5743 219.338 69.7141 219.401 69.8401C219.464 69.9662 219.557 70.0745 219.673 70.1552C219.968 70.3495 220.318 70.4432 220.67 70.4225C221.06 70.4293 221.445 70.3302 221.783 70.1356" fill="#112D35"/>
<path d="M230.554 71.1561C230.343 71.3243 230.101 71.4475 229.841 71.5179C229.552 71.5996 229.254 71.6405 228.954 71.6393C228.292 71.6813 227.641 71.4597 227.141 71.0227C226.916 70.7848 226.744 70.5027 226.633 70.1944C226.523 69.8861 226.478 69.5583 226.501 69.2316V65.7961H225.328V64.4597H226.501V62.8301H228.168V64.4607H230.074V65.7961H228.168V69.1892C228.148 69.4773 228.238 69.7624 228.421 69.9859C228.517 70.0811 228.631 70.155 228.758 70.2025C228.884 70.2501 229.019 70.2703 229.153 70.2618C229.489 70.2733 229.818 70.1695 230.087 69.9676L230.554 71.1561Z" fill="#112D35"/>
<path d="M238.591 68.5116H233.006C233.089 69.0122 233.364 69.4605 233.772 69.7608C234.221 70.0792 234.762 70.2413 235.311 70.2222C235.67 70.2335 236.027 70.1703 236.36 70.0366C236.692 69.9029 236.994 69.7015 237.246 69.4452L238.138 70.4771C237.812 70.8632 237.396 71.1615 236.926 71.3449C236.398 71.5471 235.837 71.6469 235.273 71.6391C234.556 71.6539 233.846 71.493 233.205 71.1703C232.63 70.8779 232.151 70.4257 231.826 69.8677C231.496 69.2925 231.328 68.6386 231.339 67.9753C231.329 67.3187 231.493 66.6713 231.813 66.0987C232.12 65.5496 232.575 65.0981 233.125 64.796C233.705 64.4781 234.357 64.3166 235.017 64.3273C235.667 64.3161 236.309 64.4752 236.878 64.7888C237.419 65.0903 237.863 65.5405 238.157 66.0863C238.473 66.6798 238.631 67.3449 238.617 68.0177C238.617 68.1336 238.608 68.2991 238.59 68.513M233.665 66.1394C233.292 66.4624 233.052 66.9126 232.991 67.4027H237.032C236.978 66.9114 236.74 66.4588 236.366 66.1364C235.992 65.8139 235.51 65.6455 235.018 65.6652C234.524 65.6517 234.043 65.8205 233.665 66.1394" fill="#112D35"/>
<path d="M247.191 61.6257V71.5427H245.592V70.6215C245.321 70.9569 244.97 71.2185 244.571 71.3823C244.146 71.5561 243.689 71.6427 243.23 71.6372C242.586 71.6472 241.95 71.4907 241.385 71.1826C240.843 70.8843 240.397 70.4375 240.099 69.8945C239.78 69.3055 239.619 68.6436 239.632 67.9734C239.619 67.3067 239.78 66.6481 240.099 66.0631C240.399 65.5224 240.845 65.0776 241.386 64.7801C241.952 64.4726 242.587 64.3166 243.231 64.3272C243.674 64.3212 244.114 64.4023 244.525 64.5659C244.911 64.7232 245.253 64.9717 245.523 65.2902V61.6257H247.191ZM244.511 69.9338C244.832 69.7494 245.096 69.4784 245.272 69.1516C245.455 68.7868 245.551 68.384 245.551 67.9755C245.551 67.567 245.455 67.1642 245.272 66.7994C245.096 66.4722 244.833 66.2011 244.511 66.0172C244.179 65.8371 243.808 65.7427 243.431 65.7427C243.054 65.7427 242.683 65.8371 242.351 66.0172C242.03 66.2012 241.767 66.4723 241.592 66.7994C241.408 67.1638 241.311 67.5668 241.311 67.9755C241.311 68.3842 241.408 68.7872 241.592 69.1516C241.767 69.4783 242.03 69.7492 242.351 69.9338C242.683 70.1128 243.054 70.2064 243.431 70.2064C243.808 70.2064 244.179 70.1128 244.511 69.9338Z" fill="#112D35"/>
<path d="M257.336 71.1561C257.126 71.3243 256.883 71.4475 256.623 71.5179C256.335 71.5996 256.036 71.6405 255.737 71.6393C255.075 71.6813 254.423 71.4597 253.924 71.0227C253.699 70.7848 253.526 70.5027 253.416 70.1944C253.306 69.8861 253.261 69.5583 253.284 69.2316V65.7961H252.111V64.4597H253.284V62.8301H254.951V64.4607H256.857V65.7961H254.951V69.1892C254.931 69.4773 255.021 69.7624 255.204 69.9859C255.299 70.0811 255.414 70.155 255.54 70.2025C255.667 70.2501 255.802 70.2703 255.936 70.2618C256.272 70.2734 256.601 70.1696 256.869 69.9676L257.336 71.1561Z" fill="#112D35"/>
<path d="M264.91 65.1149C265.45 65.6406 265.721 66.4199 265.722 67.453V71.5427H264.056V67.6685C264.095 67.1594 263.938 66.6546 263.615 66.259C263.452 66.0948 263.256 65.9674 263.04 65.8853C262.824 65.8033 262.593 65.7684 262.362 65.783C262.095 65.7692 261.828 65.8115 261.578 65.9072C261.328 66.003 261.1 66.15 260.91 66.339C260.529 66.779 260.337 67.3524 260.377 67.9338V71.5424H258.711V61.6257H260.377V65.2343C260.661 64.934 261.01 64.703 261.397 64.559C261.83 64.4 262.289 64.3214 262.75 64.3272C263.144 64.3085 263.538 64.3685 263.909 64.5037C264.279 64.639 264.62 64.8467 264.91 65.1149Z" fill="#112D35"/>
<path d="M267.923 62.9447C267.826 62.8527 267.749 62.7418 267.696 62.6188C267.643 62.4958 267.616 62.3632 267.616 62.2293C267.616 62.0953 267.643 61.9627 267.696 61.8397C267.749 61.7167 267.826 61.6058 267.923 61.5138C268.129 61.3214 268.401 61.2183 268.682 61.2268C268.961 61.2183 269.233 61.3158 269.443 61.4996C269.541 61.585 269.62 61.691 269.673 61.8103C269.726 61.9295 269.751 62.059 269.749 62.1894C269.752 62.327 269.727 62.4638 269.675 62.5913C269.624 62.7188 269.546 62.8343 269.448 62.9306C269.348 63.0304 269.228 63.1086 269.096 63.1604C268.964 63.2122 268.824 63.2364 268.682 63.2317C268.401 63.2394 268.129 63.1364 267.923 62.9447ZM267.843 64.4078H269.509V71.545H267.843V64.4078Z" fill="#112D35"/>
<path d="M272.202 71.411C271.732 71.2965 271.286 71.1024 270.883 70.8371L271.522 69.5665C271.877 69.7971 272.266 69.9709 272.674 70.0814C273.106 70.2072 273.553 70.2719 274.002 70.2739C274.998 70.2739 275.495 70.0113 275.495 69.4862C275.498 69.3694 275.463 69.2549 275.394 69.1607C275.325 69.0665 275.227 68.9979 275.115 68.9657C274.718 68.8328 274.31 68.7384 273.895 68.6839C273.41 68.6163 272.931 68.5139 272.461 68.3773C272.093 68.2611 271.763 68.051 271.501 67.7679C271.214 67.4328 271.068 66.999 271.094 66.558C271.087 66.2377 271.162 65.9209 271.31 65.6371C271.458 65.3533 271.675 65.1117 271.942 64.9346C272.622 64.497 273.421 64.2844 274.228 64.3269C274.721 64.3281 275.213 64.3843 275.694 64.4945C276.115 64.5815 276.52 64.7327 276.894 64.9429L276.254 66.2135C275.636 65.8527 274.931 65.6673 274.216 65.6772C273.832 65.6551 273.448 65.7312 273.101 65.8982C272.99 65.9502 272.896 66.0321 272.829 66.1346C272.762 66.2372 272.724 66.3564 272.721 66.479C272.718 66.6055 272.756 66.7294 272.829 66.8323C272.903 66.9352 273.007 67.0114 273.128 67.0495C273.536 67.1955 273.958 67.3006 274.388 67.363C274.862 67.43 275.33 67.5325 275.789 67.6696C276.147 67.7815 276.47 67.984 276.727 68.2577C277.008 68.583 277.15 69.0061 277.122 69.4355C277.127 69.7547 277.049 70.0698 276.897 70.3504C276.745 70.631 276.524 70.8676 276.254 71.0375C275.548 71.475 274.724 71.6852 273.895 71.64C273.323 71.6406 272.753 71.564 272.201 71.412" fill="#112D35"/>
<path d="M36.6047 87.2087C36.0346 86.9119 35.5591 86.4606 35.2324 85.906C34.898 85.3325 34.7271 84.6779 34.7384 84.0136C34.7266 83.352 34.8975 82.7 35.2324 82.1298C35.5591 81.5796 36.0316 81.1311 36.5975 80.8341C37.2131 80.5131 37.8991 80.3519 38.5928 80.3653C39.2338 80.3509 39.8682 80.498 40.4378 80.793C40.9556 81.0659 41.3738 81.4964 41.6323 82.0226L40.3508 82.771C40.1662 82.4596 39.9016 82.2037 39.5846 82.0298C39.2754 81.8635 38.9292 81.7784 38.5784 81.7822C38.2927 81.7728 38.0081 81.8218 37.7419 81.9263C37.4758 82.0308 37.2336 82.1885 37.0302 82.3899C36.6363 82.8384 36.4183 83.4151 36.417 84.0128C36.4157 84.6104 36.631 85.1881 37.023 85.6384C37.3608 85.9554 37.788 86.16 38.2461 86.2245C38.7043 86.2889 39.1712 86.21 39.5829 85.9985C39.9002 85.8251 40.165 85.5691 40.349 85.2573L41.6305 86.0057C41.3624 86.531 40.9416 86.9623 40.4237 87.2425C39.8595 87.541 39.2289 87.6907 38.5911 87.6774C37.9001 87.6883 37.2173 87.5273 36.6037 87.2087" fill="#112D35"/>
<path d="M49.737 80.4461L46.4041 88.1572C46.1878 88.7998 45.7941 89.3677 45.2689 89.7951C44.7955 90.1213 44.2309 90.2879 43.6568 90.271C43.2984 90.2694 42.9426 90.2105 42.6027 90.0965C42.2873 89.9981 41.9965 89.8335 41.7495 89.6137L42.4162 88.3841C42.5814 88.5383 42.7736 88.6604 42.9832 88.7442C43.1922 88.8316 43.4162 88.8769 43.6427 88.8777C43.9039 88.8879 44.1607 88.8073 44.3696 88.6497C44.6014 88.4412 44.7815 88.1814 44.8956 87.8909L45.0164 87.6095L41.9091 80.4457H43.6423L45.8819 85.7226L48.136 80.4457L49.737 80.4461Z" fill="#112D35"/>
<path d="M52.0561 87.2088C51.486 86.912 51.0105 86.4607 50.6838 85.9061C50.3494 85.3326 50.1785 84.678 50.1898 84.0137C50.178 83.3521 50.349 82.7001 50.6838 82.1299C51.0106 81.5798 51.4833 81.1314 52.0492 80.8345C52.6648 80.5135 53.3508 80.3524 54.0446 80.3658C54.6856 80.3513 55.3199 80.4984 55.8896 80.7935C56.4074 81.0663 56.8256 81.4968 57.084 82.023L55.8025 82.7714C55.6179 82.4601 55.3533 82.2041 55.0364 82.0302C54.7271 81.864 54.381 81.7788 54.0301 81.7826C53.7444 81.7732 53.4598 81.8222 53.1937 81.9267C52.9275 82.0312 52.6854 82.1889 52.482 82.3903C52.088 82.8388 51.8701 83.4156 51.8688 84.0132C51.8674 84.6108 52.0828 85.1886 52.4748 85.6388C52.8126 85.9558 53.2397 86.1604 53.6979 86.2249C54.1561 86.2893 54.6229 86.2104 55.0347 85.9989C55.352 85.8256 55.6167 85.5695 55.8008 85.2577L57.0823 86.0061C56.8142 86.5314 56.3934 86.9627 55.8755 87.2429C55.3113 87.5415 54.6806 87.6911 54.0428 87.6778C53.3519 87.6888 52.669 87.5277 52.0554 87.2091" fill="#112D35"/>
<path d="M60.189 77.6642H58.5232V87.5813H60.189V77.6642Z" fill="#112D35"/>
<path d="M69.0404 84.55H63.4555C63.5385 85.0507 63.8135 85.499 64.2216 85.7992C64.6707 86.1176 65.2114 86.2797 65.7611 86.2607C66.1195 86.272 66.4764 86.2088 66.8093 86.075C67.1421 85.9413 67.4438 85.74 67.6952 85.4837L68.5876 86.5156C68.2621 86.9017 67.8453 87.2 67.3753 87.3833C66.8479 87.5855 66.2869 87.6854 65.7223 87.6775C65.0054 87.6923 64.2958 87.5314 63.655 87.2088C63.08 86.9163 62.6011 86.4641 62.2755 85.9061C61.9457 85.331 61.7773 84.677 61.7883 84.0137C61.7789 83.3572 61.9426 82.7098 62.2631 82.1372C62.5696 81.588 63.0242 81.1366 63.5749 80.8345C64.1544 80.5166 64.8064 80.3551 65.467 80.3658C66.1169 80.3546 66.7584 80.5137 67.3282 80.8273C67.8689 81.1287 68.3123 81.5789 68.6062 82.1247C68.9225 82.7182 69.081 83.3834 69.0665 84.0561C69.0665 84.172 69.0576 84.3376 69.0397 84.5514M64.1139 82.1779C63.7412 82.5009 63.5012 82.951 63.4403 83.4412H67.4816C67.4276 82.9498 67.1897 82.4973 66.8159 82.1748C66.4422 81.8524 65.9604 81.684 65.4677 81.7036C64.974 81.6902 64.4927 81.8589 64.115 82.1779" fill="#112D35"/>
<path d="M70.4267 87.3622C70.3215 87.2594 70.2387 87.1358 70.1836 86.9993C70.1285 86.8627 70.1024 86.7162 70.1067 86.569C70.1022 86.4222 70.1272 86.2761 70.1801 86.1392C70.233 86.0023 70.3128 85.8774 70.4147 85.772C70.5167 85.6666 70.6387 85.5828 70.7736 85.5256C70.9084 85.4684 71.0534 85.4389 71.1999 85.4389C71.3463 85.4389 71.4913 85.4684 71.6261 85.5256C71.761 85.5828 71.883 85.6666 71.985 85.772C72.0869 85.8774 72.1667 86.0023 72.2196 86.1392C72.2725 86.2761 72.2975 86.4222 72.293 86.569C72.2946 86.7864 72.2319 86.9995 72.1129 87.1812C71.9938 87.363 71.8236 87.5053 71.6239 87.5902C71.4242 87.6751 71.2039 87.6987 70.9908 87.6581C70.7777 87.6176 70.5814 87.5146 70.4267 87.3622Z" fill="#112D35"/>
</svg>
