<svg width="60" height="60" viewBox="0 0 60 60" fill="none" xmlns="http://www.w3.org/2000/svg">
<path fill-rule="evenodd" clip-rule="evenodd" d="M55.1333 13H4.86667C2.73216 13.0024 1.0024 14.7322 1 16.8667V43.9333C1.0024 46.0678 2.73216 47.7976 4.86667 47.8H55.1333C57.2678 47.7976 58.9976 46.0678 59 43.9333V16.8667C58.9976 14.7322 57.2678 13.0024 55.1333 13ZM17.182 43.9333L4.86667 33.3773V27.4227L17.182 16.8667H42.818L55.1348 27.4234V33.3761L42.818 43.9333H17.182ZM39.6667 30.4C39.6667 35.7388 35.3388 40.0667 30 40.0667C24.6612 40.0667 20.3333 35.7388 20.3333 30.4C20.3333 25.0612 24.6612 20.7333 30 20.7333C35.3362 20.7395 39.6605 25.0638 39.6667 30.4Z" fill="#AA92E1"/>
</svg>
