<svg width="60" height="60" viewBox="0 0 60 60" fill="none" xmlns="http://www.w3.org/2000/svg">
<path fill-rule="evenodd" clip-rule="evenodd" d="M30 3C15.0883 3 3 15.0883 3 30C3 44.9117 15.0883 57 30 57C44.9117 57 57 44.9117 57 30C56.9831 15.0953 44.9047 3.01688 30 3ZM44.5385 32.0769H35.014L41.7489 38.8116C42.56 39.6227 42.56 40.9378 41.7489 41.7489C40.9378 42.56 39.6227 42.56 38.8116 41.7489L28.5316 31.4686C28.4832 31.4201 28.4372 31.3693 28.3938 31.3163C28.3745 31.2929 28.3579 31.2685 28.34 31.2446C28.3174 31.2142 28.2938 31.1844 28.2725 31.153C28.2533 31.1239 28.2367 31.0938 28.2188 31.0642C28.2019 31.0356 28.184 31.0081 28.1684 30.9788C28.1521 30.9484 28.1383 30.9172 28.1238 30.8861C28.1092 30.8557 28.0942 30.8258 28.0812 30.7944C28.0687 30.7643 28.0586 30.7337 28.0477 30.7033C28.0357 30.6701 28.023 30.6368 28.0126 30.6026C28.0033 30.5719 27.9965 30.541 27.9888 30.5099C27.9799 30.4754 27.9706 30.4411 27.9633 30.4058C27.9563 30.37 27.9519 30.3339 27.947 30.2978C27.9423 30.2666 27.9366 30.2362 27.9335 30.2048C27.9269 30.1385 27.9235 30.0722 27.9233 30.0057L27.9231 30L27.9233 29.9943C27.9235 29.9277 27.927 29.8613 27.9337 29.7952C27.9363 29.7638 27.9423 29.7334 27.9467 29.7022C27.9519 29.6659 27.9563 29.63 27.9633 29.5942C27.9703 29.5589 27.9799 29.5246 27.9888 29.4901C27.9965 29.459 28.0033 29.4278 28.0126 29.3974C28.023 29.3632 28.036 29.3299 28.048 29.2967C28.0589 29.2663 28.0687 29.2357 28.0812 29.2056C28.0942 29.1744 28.1092 29.1443 28.1238 29.1139C28.1383 29.0828 28.1523 29.0516 28.1684 29.0213C28.184 28.9919 28.2019 28.9641 28.2188 28.9358C28.2367 28.9062 28.2533 28.8761 28.2728 28.847C28.2938 28.8154 28.3174 28.7858 28.3403 28.7554C28.3579 28.7315 28.3745 28.7071 28.3938 28.6838C28.4807 28.5778 28.5778 28.4807 28.6838 28.3938C28.7076 28.3743 28.7326 28.3574 28.7567 28.3392C28.7866 28.3167 28.8159 28.2935 28.8468 28.273C28.8764 28.253 28.9073 28.2359 28.9377 28.2177C28.9654 28.2011 28.9924 28.1837 29.021 28.1684C29.0521 28.1518 29.0841 28.1378 29.1158 28.123C29.1456 28.1087 29.1747 28.0939 29.2053 28.0814C29.2362 28.0685 29.2676 28.0581 29.2988 28.0472C29.3315 28.0352 29.3637 28.0228 29.3969 28.0126C29.4286 28.0033 29.4608 27.996 29.493 27.9882C29.5267 27.9797 29.5597 27.9701 29.5942 27.9633C29.6311 27.956 29.6687 27.9516 29.7064 27.9462C29.7357 27.942 29.765 27.9363 29.7949 27.9335C29.8633 27.9265 29.9317 27.9231 30.0003 27.9231H44.5385C45.6855 27.9231 46.6154 28.8529 46.6154 30C46.6154 31.1471 45.6855 32.0769 44.5385 32.0769Z" fill="#AA92E1"/>
</svg>
