<svg width="40" height="43" viewBox="0 0 40 43" fill="none" xmlns="http://www.w3.org/2000/svg">
<path fill-rule="evenodd" clip-rule="evenodd" d="M23.3234 5.94568C23.376 4.93704 23.4812 3.92839 23.5864 2.91975C23.5697 2.68439 23.5584 2.45436 23.5472 2.22965C23.5233 1.74477 23.5005 1.28468 23.4286 0.849383C23.376 0.530864 23.0604 0 22.85 0C22.5343 0 22.0083 0.265432 21.8505 0.530864C21.4297 1.22099 21.0089 2.01729 20.7984 2.81358C20.1146 5.30864 19.536 7.8037 19.0099 10.3519C18.6943 11.8383 18.6417 13.3247 19.1677 14.758C19.4834 15.5543 19.9568 16.1913 20.9037 16.1913C21.8505 16.1913 22.3765 15.5543 22.6396 14.758C22.9026 14.0148 23.0078 13.2186 23.0604 12.4223C23.113 11.3339 23.1524 10.2589 23.1919 9.18392C23.2314 8.10895 23.2708 7.03395 23.3234 5.94568ZM16.222 41.4074C16.3272 41.8852 16.485 42.4161 17.2215 42.5223C17.2741 42.2459 17.3289 41.9675 17.384 41.6869L17.3842 41.6861C17.6046 40.5654 17.8317 39.4108 17.9579 38.2223C18.4313 34.7716 18.7996 31.321 19.1677 27.8704C19.2203 27.3926 19.1677 26.8618 19.0625 26.3839C18.747 25.3223 17.9053 24.7383 17.011 24.8975C16.1168 25.0568 15.6959 25.7469 15.6959 26.9148C15.7485 28.2951 15.7485 29.7284 15.7485 31.1087C15.7485 31.8537 15.7426 32.5988 15.7368 33.3419C15.7251 34.8225 15.7135 36.2953 15.7485 37.7444C15.7485 38.762 15.9312 39.7794 16.1139 40.7969C16.1503 41.0004 16.187 41.2039 16.222 41.4074ZM39.4726 22.1901C39.2177 22.2473 38.9588 22.3123 38.6982 22.3776C37.9912 22.5548 37.2713 22.7352 36.5795 22.7741L36.0743 22.8217C32.3017 23.1772 28.5731 23.5285 24.7964 23.7827C24.165 23.8358 23.4286 23.6765 22.85 23.4111C22.061 23.0926 22.1136 22.2432 22.85 21.8716C23.2708 21.6593 23.7443 21.5531 24.165 21.5531C29.1624 21.3938 34.1597 21.3407 39.157 21.7655C39.2623 21.7655 39.3675 21.8186 39.4726 21.8716V22.1901ZM13.434 19.1996C14.0477 19.1465 14.6615 19.0934 15.2751 19.058C15.2751 18.9519 15.2751 18.8457 15.3277 18.6864C15.1173 18.6599 14.92 18.6201 14.7228 18.5802C14.5255 18.5405 14.3283 18.5006 14.1178 18.4741C12.2504 18.2618 10.3962 18.0494 8.54189 17.837C6.68762 17.6247 4.83335 17.4124 2.96595 17.2C2.65032 17.1735 2.3347 17.1337 2.01909 17.0938C1.70346 17.054 1.38784 17.0142 1.07223 16.9876C0.546191 16.9876 0.125364 17.2 0.0201578 17.7308C-0.085049 18.3148 0.230571 18.7395 0.756604 18.8988C1.12483 19.0049 1.54565 19.1111 1.96648 19.1111C2.59583 19.137 3.22833 19.1661 3.86244 19.1953C5.8253 19.2856 7.80355 19.3765 9.75174 19.3765C10.9792 19.412 12.2066 19.3058 13.434 19.1996Z" fill="#1F94AA"/>
</svg>
