<svg width="60" height="60" viewBox="0 0 60 60" fill="none" xmlns="http://www.w3.org/2000/svg">
<circle cx="30" cy="30" r="30" fill="#F7F7FE"/>
<path d="M30.5514 37.8416L36.8558 41.8358C37.6617 42.3464 38.6622 41.587 38.4231 40.6463L36.6016 33.481C36.5503 33.2815 36.5564 33.0715 36.6191 32.8752C36.6819 32.6789 36.7987 32.5044 36.9563 32.3715L42.6097 27.6661C43.3525 27.0478 42.9691 25.815 42.0147 25.7531L34.6318 25.2739C34.4329 25.2597 34.2422 25.1893 34.0818 25.0709C33.9214 24.9525 33.7979 24.791 33.7258 24.6051L30.9722 17.671C30.8974 17.4737 30.7643 17.3039 30.5906 17.184C30.417 17.0642 30.211 17 30 17C29.789 17 29.583 17.0642 29.4094 17.184C29.2357 17.3039 29.1026 17.4737 29.0278 17.671L26.2742 24.6051C26.2021 24.791 26.0786 24.9525 25.9182 25.0709C25.7578 25.1893 25.5671 25.2597 25.3682 25.2739L17.9853 25.7531C17.0309 25.815 16.6475 27.0478 17.3903 27.6661L23.0437 32.3715C23.2013 32.5044 23.3181 32.6789 23.3809 32.8752C23.4436 33.0715 23.4497 33.2815 23.3984 33.481L21.7092 40.126C21.4222 41.2549 22.6229 42.1661 23.5899 41.5534L29.4486 37.8416C29.6134 37.7367 29.8047 37.681 30 37.681C30.1953 37.681 30.3866 37.7367 30.5514 37.8416Z" fill="#AA92E1" stroke="#AA92E1" stroke-width="2" stroke-linecap="round" stroke-linejoin="round"/>
</svg>
