<svg width="332" height="324" viewBox="0 0 332 324" fill="none" xmlns="http://www.w3.org/2000/svg">
<path d="M188.156 6.73273C195.842 -1.73909 209.158 -1.73907 216.844 6.73274L247.705 40.7452C252.347 45.8615 259.362 48.1179 266.117 46.6671L311.525 36.9136C322.816 34.4884 333.707 42.4198 334.864 53.9102L339.338 98.3479C340.044 105.359 344.501 111.433 350.978 114.21L392.796 132.137C403.573 136.757 407.806 149.817 401.787 159.88L379.001 197.982C375.339 204.104 375.339 211.743 379.001 217.865L401.787 255.966C407.806 266.029 403.573 279.089 392.796 283.709L350.978 301.637C344.501 304.413 340.044 310.487 339.338 317.498L334.864 361.936C333.707 373.426 322.816 381.358 311.525 378.933L266.117 369.179C259.362 367.728 252.347 369.985 247.705 375.101L216.844 409.113C209.158 417.585 195.842 417.585 188.156 409.113L157.295 375.101C152.653 369.985 145.638 367.728 138.883 369.179L93.4754 378.933C82.1844 381.358 71.2933 373.426 70.1364 361.936L65.6621 317.498C64.9562 310.487 60.4986 304.413 54.0223 301.637L12.2038 283.709C1.42697 279.089 -2.80573 266.029 3.21254 255.966L25.9994 217.865C29.6607 211.743 29.6607 204.104 25.9994 197.982L3.21254 159.88C-2.80573 149.817 1.42698 136.757 12.2038 132.137L54.0224 114.21C60.4986 111.433 64.9562 105.359 65.6621 98.3479L70.1364 53.9102C71.2933 42.4198 82.1844 34.4884 93.4754 36.9136L138.883 46.6671C145.638 48.1179 152.653 45.8615 157.295 40.7452L188.156 6.73273Z" fill="#D0CDFE"/>
</svg>
