<svg width="58" height="57" viewBox="0 0 58 57" fill="none" xmlns="http://www.w3.org/2000/svg">
<g clip-path="url(#clip0_0_376)">
<path fill-rule="evenodd" clip-rule="evenodd" d="M20.6755 12.3438C19.9018 12.3077 19.1917 12.5125 18.5548 12.9127C18.2918 13.0775 18.1338 13.456 18.3597 13.7126C19.0979 14.5513 18.7426 15.4481 18.5324 16.3034C17.195 21.7438 15.0008 26.8461 12.4232 31.7892C11.4827 33.5934 10.4728 35.3607 9.50507 37.1501C9.37382 37.3931 9.14501 37.6082 9.41025 37.963C9.67481 38.317 9.94444 38.0405 10.1763 38.099C11.9363 38.5442 12.5837 37.2281 13.3852 36.1431C17.4391 30.6559 20.0409 24.5081 21.554 17.8672C21.8308 16.6519 21.9867 15.4166 21.8624 14.1684C21.7829 13.3732 21.5343 12.6467 20.6755 12.3438Z" fill="#1F94AA"/>
<path fill-rule="evenodd" clip-rule="evenodd" d="M33.4119 26.5069C33.2929 25.9271 33.0274 25.6557 32.4797 25.7396C31.9416 25.8219 31.6389 26.0298 31.5041 26.6296C31.2155 27.9125 30.3163 28.8602 29.4983 29.8222C26.6188 33.2105 23.4968 36.3728 20.4223 39.5791C20.1804 39.8316 19.9164 40.0761 20.0365 40.5148C20.1819 41.0487 20.6002 40.6627 20.8569 40.8056C21.7023 41.2761 22.2832 40.7382 22.8542 40.2492C25.8185 37.7097 28.8459 35.2356 31.2748 32.135C32.0716 31.1177 32.8385 30.082 33.5001 28.9662C33.7927 28.4725 33.5451 27.8111 34.1181 27.3794C34.3516 27.2038 34.3583 26.6676 34.1549 26.2869C34.0493 26.089 33.9511 25.8395 33.7012 25.867C33.4078 25.8991 33.5217 26.2158 33.4119 26.5069Z" fill="#1F94AA"/>
<path fill-rule="evenodd" clip-rule="evenodd" d="M44.0161 37.3449C42.9712 37.1908 42.2862 37.4757 41.5755 38.0904C40.2062 39.2748 38.4846 39.8545 36.8011 40.4539C34.5758 41.2468 32.3072 41.888 29.9851 42.343C29.3967 42.458 28.8265 42.6812 28.2617 42.8916C28.0466 42.9715 27.791 43.0956 27.9116 43.4414C28.0095 43.7232 28.2081 43.7373 28.4711 43.8025C30.5221 44.3112 32.4403 43.5535 34.3724 43.1644C37.0064 42.6339 39.5794 41.8387 41.9776 40.5727C42.8576 40.1079 43.6664 39.5446 44.3891 38.8601C44.6988 38.5665 44.9377 38.2451 44.7998 37.7675C44.6481 37.2439 44.2554 37.3136 44.0161 37.3449Z" fill="#1F94AA"/>
</g>
<defs>
<clipPath id="clip0_0_376">
<rect width="46.0331" height="44.1151" fill="white" transform="translate(0.160156 15.0461) rotate(-18.319)"/>
</clipPath>
</defs>
</svg>
