<svg width="60" height="60" viewBox="0 0 60 60" fill="none" xmlns="http://www.w3.org/2000/svg">
<path d="M30 51.7778C31.1455 51.7778 32.0741 52.7064 32.0741 53.8519V55.9259C32.0741 57.0714 31.1455 58 30 58C28.8545 58 27.9259 57.0714 27.9259 55.9259V53.8519C27.9259 52.7064 28.8545 51.7778 30 51.7778ZM11.6678 45.3992C12.4803 44.6047 13.7809 44.612 14.5845 45.4155C15.388 46.2191 15.3953 47.5197 14.6008 48.3322L13.1341 49.7989C12.6122 50.3326 11.8437 50.5447 11.1219 50.3542C10.4001 50.1636 9.83637 49.5999 9.64584 48.8781C9.45532 48.1563 9.6674 47.3878 10.2011 46.8659L11.6678 45.3992ZM45.4155 45.4155C46.2191 44.612 47.5197 44.6047 48.3322 45.3992L49.7989 46.8659C50.5934 47.6784 50.5861 48.979 49.7825 49.7825C48.979 50.5861 47.6784 50.5934 46.8659 49.7989L45.3992 48.3322C44.6047 47.5197 44.612 46.2191 45.4155 45.4155ZM30 12.3704C39.7366 12.3704 47.6296 20.2634 47.6296 30C47.6296 39.7366 39.7366 47.6296 30 47.6296C20.2634 47.6296 12.3704 39.7366 12.3704 30C12.3704 20.2634 20.2634 12.3704 30 12.3704ZM6.14815 27.9259C7.29363 27.9259 8.22222 28.8545 8.22222 30C8.22222 31.1455 7.29363 32.0741 6.14815 32.0741H4.07407C2.92859 32.0741 2 31.1455 2 30C2 28.8545 2.92859 27.9259 4.07407 27.9259H6.14815ZM55.9259 27.9259C57.0714 27.9259 58 28.8545 58 30C58 31.1455 57.0714 32.0741 55.9259 32.0741H53.8519C52.7064 32.0741 51.7778 31.1455 51.7778 30C51.7778 28.8545 52.7064 27.9259 53.8519 27.9259H55.9259ZM11.1216 9.64584C11.8434 9.45532 12.612 9.6674 13.1339 10.2011L14.6005 11.6678C15.1373 12.189 15.3517 12.959 15.1616 13.6827C14.9715 14.4063 14.4064 14.9715 13.6827 15.1617C12.9591 15.3518 12.1891 15.1375 11.6678 14.6008L10.2009 13.1341C9.66714 12.6122 9.45506 11.8437 9.64559 11.1219C9.83611 10.4001 10.3998 9.83637 11.1216 9.64584ZM46.8659 10.2011C47.3878 9.6674 48.1563 9.45532 48.8781 9.64584C49.5999 9.83637 50.1636 10.4001 50.3542 11.1219C50.5447 11.8437 50.3326 12.6122 49.7989 13.1341L48.3325 14.6008C47.9439 14.9903 47.4161 15.2089 46.8659 15.2082C46.0271 15.2081 45.2709 14.7029 44.9499 13.9279C44.6288 13.153 44.8062 12.261 45.3992 11.6678L46.8659 10.2011ZM30 2C31.1455 2 32.0741 2.92859 32.0741 4.07407V6.14815C32.0741 7.29363 31.1455 8.22222 30 8.22222C28.8545 8.22222 27.9259 7.29363 27.9259 6.14815V4.07407C27.9259 2.92859 28.8545 2 30 2Z" fill="#AA92E1"/>
</svg>
