<svg width="255" height="210" viewBox="0 0 255 210" fill="none" xmlns="http://www.w3.org/2000/svg">
<path d="M79.401 5C78.4563 10.273 75.6767 15.1622 73.1529 19.8114C67.8528 29.5745 61.9129 39.0396 55.9045 48.3763C43.9776 66.9102 31.275 85.0801 16.6557 101.583C13.8099 104.795 10.8263 109.914 6.97556 112.118C-2.58186 117.59 25.1452 99.6482 34.5201 93.8685C54.1324 81.7772 74.1519 70.044 95.4173 61.0718C106.719 56.3036 118.702 52.4228 131.058 51.991C136.961 51.7847 142.565 52.9325 146.634 57.5453C153.036 64.8028 149.077 73.867 144.434 80.9526C124.763 110.976 90.7658 130.969 59.2046 146.193C51.7444 149.792 44.0627 152.581 36.2361 155.23C34.0551 155.968 30.0902 156.51 28.272 158.139C23.1161 162.761 41.105 152.943 47.6324 150.646C103.598 130.948 163.633 116.719 223.196 116.218C225.261 116.2 253.895 114.568 249.552 124.285C247.832 128.134 244.054 131.506 241.192 134.159C232.729 142.006 224.789 148.197 215.232 154.966C190.448 172.518 163.629 187.809 134.314 196.226C123.914 199.212 113.257 201.362 102.633 203.367C100.439 203.781 95.5756 205.631 93.2173 204.778C89.8219 203.549 97.0719 198.439 99.9934 196.314C118.054 183.181 140.482 173.22 162.475 169.292C172.154 167.563 184.591 166.661 193.143 172.686C197.226 175.563 199.862 180.432 202.735 184.412C202.985 184.757 207.348 191.321 205.331 188.291" stroke="#AA92E1" stroke-width="10" stroke-linecap="round"/>
</svg>
